<svg xmlns="http://www.w3.org/2000/svg" width="259.066" height="175" viewBox="0 0 259.066 175">
  <title>alts-A</title>
  <g>
    <g>
      <polygon points="117.069 175 102.436 131.25 14.633 131.25 0 175 117.069 175"/>
      <polygon points="58.534 0 21.95 109.375 95.119 109.375 58.534 0"/>
      <polygon points="0 109.375 0 131.25 14.633 131.25 21.95 109.375 0 109.375" fill="#999"/>
      <polygon points="117.069 131.25 117.069 109.375 95.119 109.375 102.436 131.25 117.069 131.25" fill="#999"/>
      <polygon points="95.119 109.375 21.95 109.375 14.633 131.25 102.436 131.25 95.119 109.375" fill="#4d4d4d"/>
    </g>
    <polygon points="244.434 131.25 237.117 109.375 200.532 0 163.948 109.375 156.631 131.25 141.998 175 259.066 175 244.434 131.25" fill="#4d4d4d"/>
  </g>
</svg>
