<svg xmlns="http://www.w3.org/2000/svg" width="465.531" height="404.467" viewBox="0 0 465.531 404.467">
  <title>alts-iqs</title>
  <g>
    <path d="M192.973,0V404.467H465.531V0Zm8.7,8.7H453.049L327.36,197.21,201.672,385.743ZM456.833,395.769H337.407l61.605-92.006,57.821-86.308Zm0-193.949L326.925,395.769H205.455L456.833,18.7Z" fill="#f26e21"/>
    <path d="M106.249,308.765l47.851,95.7H0l47.847-95.7V95.842L0,.14H154.1l-47.851,95.7ZM47.847,9.126H14.533l33.314,66.62Zm0,319.736L14.533,395.481H47.847ZM97.263,9.126H56.831v84.59l20.216,40.437L97.263,93.716Zm0,104.688L77.047,154.246,56.831,113.814V290.8l20.216-40.433L97.263,290.8Zm0,197.074L77.047,270.453,56.831,310.888v84.593H97.263ZM106.249,75.75,139.565,9.126H106.249Zm0,253.106v66.625h33.316Z" fill="#f26e21"/>
  </g>
</svg>
