<svg xmlns="http://www.w3.org/2000/svg" width="258.414" height="175.001" viewBox="0 0 258.414 175.001">
  <title>alts-U</title>
  <g>
    <g>
      <polygon points="0 0.001 0 175.001 58.334 87.501 0 0.001"/>
      <polygon points="116.667 175.001 116.667 0.001 58.334 87.501 116.667 175.001" fill="#999"/>
      <polygon points="0 175.001 116.667 175.001 58.334 87.501 0 175.001" fill="#4d4d4d"/>
    </g>
    <g>
      <polygon points="141.746 0 141.746 153.125 192.787 153.125 141.746 0" fill="#999"/>
      <polygon points="207.371 153.125 258.414 153.125 258.414 0 207.371 153.125" fill="#999"/>
      <polygon points="192.787 153.125 200.08 175 207.371 153.125 192.787 153.125" fill="#4d4d4d"/>
      <polygon points="141.746 153.125 141.746 175 200.08 175 192.787 153.125 141.746 153.125"/>
      <polygon points="200.08 175 258.414 175 258.414 153.125 207.371 153.125 200.08 175"/>
    </g>
  </g>
</svg>
