<svg xmlns="http://www.w3.org/2000/svg" width="262.84" height="175" viewBox="0 0 262.84 175">
  <title>alts-G</title>
  <g>
    <g>
      <polygon points="117.342 0 0.072 0 30.316 85.823 117.342 0"/>
      <polygon points="46.61 132.063 61.742 175 120.413 175 120.413 59.281 46.61 132.063"/>
      <polygon points="30.316 85.823 0 115.72 0 175 3.069 175 46.61 132.063 30.316 85.823" fill="#999"/>
      <polygon points="0.072 0 30.316 85.823 0 115.72 0.072 0" fill="#4d4d4d"/>
      <polygon points="3.069 175 61.742 175 46.61 132.063 3.069 175" fill="#4d4d4d"/>
    </g>
    <g>
      <polygon points="262.84 0 145.496 0 145.496 57.25 174.882 86.74 262.84 0"/>
      <polygon points="262.84 59.281 204.678 116.637 262.84 175 262.84 59.281"/>
      <polygon points="174.882 86.74 145.496 115.72 145.496 175 204.678 116.637 174.882 86.74" fill="#999"/>
      <polygon points="145.496 57.25 145.496 115.72 174.882 86.74 145.496 57.25" fill="#4d4d4d"/>
      <polygon points="204.678 116.637 145.496 175 262.84 175 204.678 116.637" fill="#4d4d4d"/>
    </g>
  </g>
</svg>
