<svg xmlns="http://www.w3.org/2000/svg" width="317.556" height="175" viewBox="0 0 317.556 175">
  <title>alts-M</title>
  <g>
    <g>
      <path d="M116.668,175H94.793V65.625L116.668,0Z" fill="#999"/>
      <polygon points="94.793 0 94.793 65.625 58.334 175 21.875 65.625 21.875 0 94.793 0"/>
      <polygon points="116.668 0 94.793 65.625 94.793 0 116.668 0" fill="#4d4d4d"/>
      <polygon points="0 175 0 0 21.875 65.625 21.875 175 0 175" fill="#999"/>
      <polygon points="21.875 0 21.875 65.625 0 0 21.875 0" fill="#4d4d4d"/>
    </g>
    <g>
      <polygon points="317.556 175 259.224 0 229.652 88.715 258.412 175 317.556 175"/>
      <polygon points="229.652 88.715 200.08 0 141.746 175 200.89 175 229.652 88.715" fill="#999"/>
      <polygon points="258.412 175 229.652 88.715 200.89 175 258.412 175" fill="#4d4d4d"/>
    </g>
  </g>
</svg>
