<svg xmlns="http://www.w3.org/2000/svg" width="317.414" height="175" viewBox="0 0 317.414 175">
  <title>alts-W</title>
  <g>
    <g>
      <polygon points="0 0 58.334 175 87.906 86.285 59.144 0 0 0"/>
      <polygon points="87.906 86.285 117.478 175 175.81 0 116.666 0 87.906 86.285" fill="#999"/>
      <polygon points="59.144 0 87.906 86.285 116.666 0 59.144 0" fill="#4d4d4d"/>
    </g>
    <g>
      <path d="M200.748,0h21.875V109.375L200.748,175Z" fill="#999"/>
      <polygon points="222.623 175 222.623 109.375 259.082 0 295.539 109.375 295.539 175 222.623 175"/>
      <polygon points="200.748 175 222.623 109.375 222.623 175 200.748 175" fill="#4d4d4d"/>
      <polygon points="317.414 0 317.414 175 295.539 109.375 295.539 0 317.414 0" fill="#999"/>
      <polygon points="295.539 175 295.539 109.375 317.414 175 295.539 175" fill="#4d4d4d"/>
    </g>
  </g>
</svg>
