<svg xmlns="http://www.w3.org/2000/svg" width="1283.668" height="561.383" viewBox="0 0 1283.668 561.383">
  <title>altT</title>
  <g>
    <g>
      <polygon points="0 0 0 70.173 210.514 70.173 187.124 0 0 0" fill="#f16922"/>
      <polygon points="374.253 561.383 374.253 70.173 210.514 70.173 374.253 561.383" fill="#4eb5c5"/>
      <polygon points="210.514 70.173 374.253 70.173 374.253 0 187.124 0 210.514 70.173" fill="#5d97b5"/>
    </g>
    <g>
      <polygon points="548.906 561.383 734.754 561.383 653.445 70.173 630.219 70.173 548.906 561.383" fill="#4eb5c5"/>
      <polygon points="828.959 0 454.706 0 454.706 70.173 630.219 70.173 641.83 0.005 653.445 70.173 828.958 70.173 828.959 0" fill="#f16922"/>
      <polygon points="630.219 70.173 653.445 70.173 641.83 0.005 630.219 70.173" fill="#5d97b5"/>
    </g>
    <g>
      <polygon points="1096.539 561.383 1177.853 70.173 1015.23 70.173 1096.539 561.383" fill="#4eb5c5"/>
      <polygon points="1283.668 0 909.415 0 909.415 70.173 1015.23 70.173 1003.615 0.005 1189.463 0.005 1177.852 70.173 1283.667 70.173 1283.668 0" fill="#f16922"/>
      <polygon points="1003.615 0.005 1015.23 70.173 1177.853 70.173 1189.463 0.005 1003.615 0.005" fill="#5d97b5"/>
    </g>
  </g>
</svg>
