<svg xmlns="http://www.w3.org/2000/svg" width="320.372" height="81.9" viewBox="0 0 320.372 81.9">
  <title>extra</title>
  <g opacity="0.25">
    <g>
      <polygon points="54.917 40.665 13.601 10.072 0 10.072 0 71.828 13.413 71.828 54.917 40.665"/>
      <polygon points="54.347 71.829 13.413 71.829 0 81.9 54.347 81.9 54.347 71.829" fill="#999"/>
      <polygon points="0 71.829 0 81.9 13.413 71.829 0 71.829" fill="#4d4d4d"/>
      <polygon points="54.347 10.072 54.347 0 0 0 13.601 10.072 54.347 10.072" fill="#999"/>
      <polygon points="0 0 0 10.072 13.601 10.072 0 0" fill="#4d4d4d"/>
    </g>
    <g>
      <polygon points="66.571 0 87.046 40.95 93.871 27.3 100.696 40.95 121.171 0 66.571 0" fill="#999"/>
      <polygon points="87.046 40.95 66.571 81.9 121.171 81.9 100.696 40.95 93.871 54.6 87.046 40.95"/>
      <polygon points="87.046 40.95 93.871 54.6 100.696 40.95 93.871 27.3 87.046 40.95" fill="#4d4d4d"/>
    </g>
    <g>
      <polygon points="146.651 81.9 173.765 81.9 161.903 10.238 158.514 10.238 146.651 81.9" fill="#999"/>
      <polygon points="187.508 0 132.909 0 132.909 10.238 158.514 10.238 160.208 0.001 161.903 10.238 187.508 10.238 187.508 0"/>
      <polygon points="158.514 10.238 161.903 10.238 160.208 0.001 158.514 10.238" fill="#4d4d4d"/>
    </g>
    <g>
      <polygon points="199.246 81.9 253.847 0 199.246 0 199.246 81.9" fill="#999"/>
      <polygon points="226.546 81.9 226.546 41.14 253.847 81.9 226.546 81.9"/>
    </g>
    <g>
      <polygon points="320.372 81.9 313.523 61.425 272.432 61.425 265.584 81.9 320.372 81.9"/>
      <polygon points="292.978 0 275.856 51.188 310.099 51.188 292.978 0"/>
      <polygon points="265.584 51.188 265.584 61.425 272.432 61.425 275.856 51.188 265.584 51.188" fill="#999"/>
      <polygon points="320.372 61.425 320.372 51.188 310.099 51.188 313.523 61.425 320.372 61.425" fill="#999"/>
      <polygon points="310.099 51.188 275.856 51.188 272.432 61.425 313.523 61.425 310.099 51.188" fill="#4d4d4d"/>
    </g>
  </g>
</svg>
