<svg xmlns="http://www.w3.org/2000/svg" width="944.37" height="944.37" viewBox="0 0 944.37 944.37">
  <title>nerd-face</title>
  <g>
    <circle cx="472.185" cy="472.185" r="472.185" fill="#efd522"/>
    <g>
      <g>
        <path d="M820.693,299.647H751.085a115.542,115.542,0,0,0-38.834-6.69H546.172a61.7,61.7,0,0,0-55.82,35.531,8.928,8.928,0,0,1-8.071,5.169H456.489a8.928,8.928,0,0,1-8.071-5.169,61.7,61.7,0,0,0-55.82-35.531H226.519a115.546,115.546,0,0,0-38.834,6.69H118.077a17.54,17.54,0,0,0-17.54,17.541v32.939a17.54,17.54,0,0,0,17.54,17.54h0a115.492,115.492,0,0,0-7.62,41.352c0,96.525,78.528,175.053,175.053,175.053h35.674A133.042,133.042,0,0,0,454.226,451.03V406.816a5.139,5.139,0,0,1,5.139-5.139h20.041a5.139,5.139,0,0,1,5.138,5.139v44.215A133.04,133.04,0,0,0,617.585,584.072h35.676c96.524,0,175.052-78.528,175.052-175.053a115.492,115.492,0,0,0-7.62-41.352h0a23.14,23.14,0,0,0,23.14-23.14V322.788A23.141,23.141,0,0,0,820.693,299.647ZM404.226,451.031a83.136,83.136,0,0,1-83.042,83.041H285.51A125.5,125.5,0,0,1,160.457,409.019a66.138,66.138,0,0,1,66.062-66.062H392.6a11.784,11.784,0,0,1,11.628,11.628Zm337.331,46.285a124.146,124.146,0,0,1-88.3,36.756H617.586a83.136,83.136,0,0,1-83.042-83.041V354.585a11.784,11.784,0,0,1,11.628-11.628H712.251a66.137,66.137,0,0,1,66.062,66.062A124.141,124.141,0,0,1,741.557,497.316Z"/>
        <ellipse cx="640.789" cy="436.579" rx="46.639" ry="68.912"/>
        <ellipse cx="289.557" cy="436.579" rx="46.639" ry="68.912"/>
      </g>
      <g>
        <path d="M464.582,672.905v80.64c2,.042,4.014.069,6.039.069,3.089,0,6.138-.055,9.166-.135V672.847Q472.109,673,464.582,672.905Z"/>
        <path d="M218.15,600.927a4.015,4.015,0,0,0-5.456,5.66c20.864,30.519,73.2,95.9,156.668,128.187V661.929C296.582,645.993,243.162,616.7,218.15,600.927Z"/>
        <path d="M726.359,600.292C673.7,630.988,622.9,650.2,575.007,661.108v74.986c90.947-32.526,139.761-101.551,156.817-130.313A4,4,0,0,0,726.359,600.292Z"/>
        <path d="M369.362,661.929v94.576a23,23,0,0,0,23,23h49.219a23,23,0,0,0,23-23v-83.6A472.945,472.945,0,0,1,369.362,661.929Z" fill="#fff"/>
        <path d="M479.787,672.847v83.658a23,23,0,0,0,23,23h49.219a23,23,0,0,0,23-23v-95.4A470.436,470.436,0,0,1,479.787,672.847Z" fill="#fff"/>
      </g>
    </g>
  </g>
</svg>
