<svg xmlns="http://www.w3.org/2000/svg" width="1298.742" height="862.5" viewBox="0 0 1298.742 862.5">
  <title>newspaper</title>
  <g>
    <rect y="265.458" width="1187.5" height="495.043" fill="#4d4d4d"/>
    <polygon points="0 760.5 111.185 862.5 1298.685 862.5 1187.5 760.5 0 760.5" fill="#999"/>
    <rect x="111.242" width="1187.5" height="862.5" fill="#f2f2f2"/>
    <g>
      <g>
        <polygon points="232.795 60.03 232.795 185.739 300.887 185.739 300.887 162.169 232.795 60.03" fill="#999"/>
        <polygon points="316.602 59.739 300.887 59.739 300.887 162.169 316.602 185.739 316.602 59.739"/>
        <polygon points="300.887 162.169 300.887 185.739 316.602 185.739 300.887 162.169" fill="#4d4d4d"/>
      </g>
      <g>
        <polygon points="422.161 122.301 358.599 75.234 337.673 75.234 337.673 170.245 358.309 170.245 422.161 122.301"/>
        <polygon points="421.285 170.245 358.309 170.245 337.673 185.739 421.285 185.739 421.285 170.245" fill="#999"/>
        <polygon points="337.673 170.245 337.673 185.739 358.309 170.245 337.673 170.245" fill="#4d4d4d"/>
        <polygon points="421.285 75.234 421.285 59.739 337.673 59.739 358.599 75.234 421.285 75.234" fill="#999"/>
        <polygon points="337.673 59.739 337.673 75.234 358.599 75.234 337.673 59.739" fill="#4d4d4d"/>
      </g>
      <g>
        <polygon points="440.091 59.739 482.091 185.739 503.383 121.864 482.674 59.739 440.091 59.739"/>
        <polygon points="503.383 121.864 524.675 185.739 566.674 59.739 524.09 59.739 503.383 121.864" fill="#999"/>
        <polygon points="482.674 59.739 503.383 121.864 524.09 59.739 482.674 59.739" fill="#4d4d4d"/>
      </g>
      <g>
        <polygon points="584.63 59.739 584.63 154.185 669.068 59.739 584.63 59.739" fill="#999"/>
        <polygon points="669.652 91.294 585.214 185.739 669.652 185.739 669.652 91.294"/>
      </g>
      <g>
        <polygon points="776.88 106.957 708.339 68.799 708.339 132.397 776.88 106.957"/>
        <polygon points="692.589 185.739 708.339 185.739 708.339 132.397 692.589 138.242 692.589 185.739" fill="#999"/>
        <polygon points="692.589 59.739 692.589 60.032 708.339 68.799 708.339 59.739 692.589 59.739" fill="#999"/>
        <polygon points="692.589 138.242 708.339 132.397 708.339 68.799 692.589 60.032 692.589 138.242" fill="#4d4d4d"/>
      </g>
      <g>
        <polygon points="863.117 185.739 852.581 154.239 789.363 154.239 778.827 185.739 863.117 185.739"/>
        <polygon points="820.972 59.739 794.631 138.489 847.313 138.489 820.972 59.739"/>
        <polygon points="778.827 138.489 778.827 154.239 789.363 154.239 794.631 138.489 778.827 138.489" fill="#999"/>
        <polygon points="863.117 154.239 863.117 138.489 847.313 138.489 852.581 154.239 863.117 154.239" fill="#999"/>
        <polygon points="847.313 138.489 794.631 138.489 789.363 154.239 852.581 154.239 847.313 138.489" fill="#4d4d4d"/>
      </g>
      <g>
        <polygon points="965.358 106.957 896.816 68.799 896.816 132.397 965.358 106.957"/>
        <polygon points="881.066 185.739 896.816 185.739 896.816 132.397 881.066 138.242 881.066 185.739" fill="#999"/>
        <polygon points="881.066 59.739 881.066 60.032 896.816 68.799 896.816 59.739 881.066 59.739" fill="#999"/>
        <polygon points="881.066 138.242 896.816 132.397 896.816 68.799 881.066 60.032 881.066 138.242" fill="#4d4d4d"/>
      </g>
      <g>
        <polygon points="1067.792 122.301 1004.23 75.234 983.305 75.234 983.305 170.245 1003.94 170.245 1067.792 122.301"/>
        <polygon points="1066.916 170.245 1003.94 170.245 983.305 185.739 1066.916 185.739 1066.916 170.245" fill="#999"/>
        <polygon points="983.305 170.245 983.305 185.739 1003.94 170.245 983.305 170.245" fill="#4d4d4d"/>
        <polygon points="1066.916 75.234 1066.916 59.739 983.305 59.739 1004.23 75.234 1066.916 75.234" fill="#999"/>
        <polygon points="983.305 59.739 983.305 75.234 1004.23 75.234 983.305 59.739" fill="#4d4d4d"/>
      </g>
      <g>
        <polygon points="1085.722 185.739 1169.723 59.739 1085.722 59.739 1085.722 185.739" fill="#999"/>
        <polygon points="1127.723 185.739 1127.723 123.032 1169.723 185.739 1127.723 185.739"/>
      </g>
    </g>
    <rect x="233.37" y="325.793" width="942.696" height="18.587" fill="#4d4d4d"/>
    <rect x="233.37" y="265.458" width="942.696" height="18.587" fill="#4d4d4d"/>
    <rect x="593.75" y="446.463" width="582.316" height="18.587" fill="#4d4d4d"/>
    <rect x="593.75" y="386.128" width="582.316" height="18.587" fill="#4d4d4d"/>
    <rect x="593.75" y="567.133" width="582.316" height="18.587" fill="#4d4d4d"/>
    <rect x="593.75" y="506.798" width="582.316" height="18.587" fill="#4d4d4d"/>
    <rect x="593.75" y="687.803" width="582.316" height="18.587" fill="#4d4d4d"/>
    <rect x="593.75" y="748.138" width="582.316" height="18.587" fill="#4d4d4d"/>
    <rect x="593.75" y="627.468" width="582.316" height="18.587" fill="#4d4d4d"/>
    <rect x="233.37" y="386.128" width="308.092" height="380.597" fill="#4d4d4d"/>
  </g>
</svg>
