<svg xmlns="http://www.w3.org/2000/svg" width="1684.244" height="1127.75" viewBox="0 0 1684.244 1127.75">
  <title>shapes-bg</title>
  <g>
    <polygon points="259.435 529.64 245.685 529.64 233.144 529.64 245.685 554.723 247.706 558.765 252.56 568.474 257.414 558.765 259.435 554.723 271.977 529.64 259.435 529.64" fill="#f7b5c8"/>
    <polygon points="1423.714 343.943 1423.714 416.643 1368.797 416.643 1368.797 415.976 1423.714 343.943" fill="#efd522"/>
    <path d="M786.521,466.808v73.025h14.518V466.808Z" fill="#4eb5c5"/>
    <polygon points="1638.714 694.833 1620.125 750.597 1602.047 804.833 1638.204 804.833 1675.38 804.833 1638.714 694.833" fill="#6ba443"/>
    <polygon points="1382.505 974.377 1382.505 999.46 1382.505 1059.295 1382.505 1084.377 1396.255 1084.377 1396.255 1059.294 1396.255 999.46 1396.255 974.377 1382.505 974.377" fill="#f16922"/>
    <polygon points="892.882 1072.833 965.582 1072.833 965.582 1127.75 964.915 1127.75 892.882 1072.833" fill="#4eb5c5"/>
    <polygon points="110.849 892.904 92.582 879.377 92.582 892.904 92.582 989.377 166.341 933.994 110.849 892.904" fill="#efd522"/>
    <polygon points="545.117 769.307 545.117 782.833 563.385 782.833 618.111 782.833 618.111 769.307 545.117 769.307" fill="#f7b5c8"/>
    <polygon points="29.298 139.736 19.056 110.672 0.045 56.726 0 129.463 0 166.726 1.93 166.726 38.809 166.726 29.298 139.736" fill="#f16922"/>
    <polygon points="721.28 925.833 707.529 925.833 694.988 925.833 707.529 950.916 709.55 954.958 714.404 964.666 719.259 954.958 721.28 950.916 733.821 925.833 721.28 925.833" fill="#6ba443"/>
    <polygon points="1032.808 38.833 1046.559 38.833 1059.1 38.833 1046.559 13.751 1044.538 9.708 1039.684 0 1034.829 9.708 1032.808 13.75 1020.267 38.833 1032.808 38.833" fill="#4eb5c5"/>
    <path d="M627.809,9.028v110h13.75v-110Z" fill="#efd522"/>
    <polygon points="1110.684 192.486 1220.684 192.486 1220.684 178.736 1151.934 178.736 1110.684 178.736 1110.684 192.486" fill="#6ba443"/>
    <g>
      <polygon points="1665.911 262.644 1665.911 262.644 1665.911 262.644 1665.911 262.644" fill="#4d4d4d"/>
      <rect x="1665.911" y="262.644" width="18.333" height="27.373" fill="#f6b2c5"/>
    </g>
  </g>
</svg>
