<svg xmlns="http://www.w3.org/2000/svg" width="654.655" height="175" viewBox="0 0 654.655 175">
  <title>title4</title>
  <g>
    <path d="M117.069,131.25H102.436L117.069,175H0l14.633-43.75H0V109.375H21.95L58.534,0,95.119,109.375h21.95Z"/>
    <path d="M259.07,65.581l-95.2,35.33V175H142V0h21.875V12.583Z"/>
    <path d="M385.663,0V175H363.788V104.441l-72.916,54.123V175H269V0h21.875V16.588l72.916,54.626V0Z"/>
    <path d="M434.4,153.48h87.465V175H405.743V0H521.868V21.52H434.806l88.281,65.371Z"/>
    <path d="M610.905,87.5l43.75,87.5H537.989l43.75-87.5L537.989,0H654.655Z"/>
  </g>
</svg>
