<svg xmlns="http://www.w3.org/2000/svg" width="682.844" height="183.304" viewBox="0 0 682.844 183.304">
  <title>title6</title>
  <g>
    <path d="M0,183.257l14.633-43.75H.773V113.654H23.28L61.3,0,99.314,113.654h22.507v25.853H107.96l14.634,43.75Zm15.965-47.728,5.985-17.9H4.75v17.9Zm-10.44,43.75H117.069l-13.3-39.772H18.829Zm17.626-52.7-2.993,8.949h82.276l-5.985-17.9h-70.3Zm4.324-12.926H95.119L61.3,12.536Zm73.169,3.978,5.985,17.9h11.213v-17.9Z"/>
    <path d="M271.288,72.258,173.351,108.61V183.3H147.5V4.326h25.852v13.4Zm-101.914-52.2-8.957-4.98L151.476,10.1V112.477l8.941-3.31,8.957-3.325Zm0,90.029-8.957,3.309-8.941,3.325v62.6h17.9Zm0-101.786h-12.95l4.264,2.37,8.686,4.837Zm3.977,96.058,88.471-32.836L173.351,22.271Z"/>
    <path d="M401.884,4.326V183.3H376.032V114.7L307.1,165.883V183.3H281.246V4.326H307.1V21.905l68.934,51.642V4.326ZM303.121,23.9l-17.9-13.412V177.162l8.941-6.649,8.957-6.634ZM288.93,8.3l2.784,2.084,11.407,8.543V8.3Zm14.191,160.522-3.4,2.529-10.738,7.971h14.143Zm72.911-90.3L307.1,26.869v134.05l68.934-51.163ZM397.907,8.3h-17.9V76.537l17.9,13.4Zm-17.9,98.493,16.7-12.394.254-.19L383.223,83.9l-3.214-2.4Zm17.9-8.32-8.957,6.633-8.941,6.651v67.565h17.9Z"/>
    <path d="M458.6,157.8h83.49v25.5h-120.1V4.326h120.1V29.812H459.062l85.575,63.382ZM447,25.835l-1.1-.811L425.971,10.261V25.835Zm5.377,3.977H425.971V157.8h26L537.987,93.21ZM425.971,177.338l12.441-9.355,8.256-6.205h-20.7Zm27.332-15.56-9.323,7-14.048,10.548H538.114V161.778ZM430,8.3l23.689,17.531h84.429V8.3Z"/>
    <path d="M638.1,93.768l44.744,89.489h-123.1l44.744-89.489L559.741,4.279h123.1Zm-31.392-4.447,14.584-29.166,14.583,29.166L676.408,8.257H566.176Zm29.169,8.894-14.584,29.166L606.709,98.215l-40.533,81.064H676.408ZM621.292,69.048,608.93,93.768l12.362,24.721,12.361-24.721Z"/>
  </g>
</svg>
