<svg xmlns="http://www.w3.org/2000/svg" width="649.655" height="175.001" viewBox="0 0 649.655 175.001">
  <title>title1</title>
  <g>
    <g>
      <polygon points="117.069 175.001 102.435 131.251 14.633 131.251 0 175.001 117.069 175.001" fill="#4bb0c3"/>
      <polygon points="58.534 0.001 21.95 109.376 95.119 109.376 58.534 0.001" fill="#4bb0c3"/>
      <polygon points="0 109.376 0 131.251 14.633 131.251 21.95 109.376 0 109.376" fill="#efd522"/>
      <polygon points="117.069 131.251 117.069 109.376 95.119 109.376 102.435 131.251 117.069 131.251" fill="#efd522"/>
      <polygon points="95.119 109.376 21.95 109.376 14.633 131.251 102.435 131.251 95.119 109.376" fill="#6ba443"/>
    </g>
    <g>
      <polygon points="259.07 65.58 163.873 12.583 163.873 100.913 259.07 65.58" fill="#f26e21"/>
      <polygon points="141.998 175 163.873 175 163.873 100.913 141.998 109.031 141.998 175" fill="#66ae7f"/>
      <polygon points="141.998 0 141.998 0.406 163.873 12.583 163.873 0 141.998 0" fill="#66ae7f"/>
      <polygon points="141.998 109.031 163.873 100.913 163.873 12.583 141.998 0.406 141.998 109.031" fill="#865526"/>
    </g>
    <g>
      <polygon points="363.788 104.442 363.788 71.214 290.872 16.589 290.872 158.565 363.788 104.442" fill="#66ae7f"/>
      <polygon points="268.997 175.001 290.872 175.001 290.872 158.565 268.997 174.802 268.997 175.001" fill="#f7b5c8"/>
      <polygon points="290.872 0.001 268.997 0.001 268.997 0.201 290.872 16.589 290.872 0.001" fill="#f7b5c8"/>
      <polygon points="290.872 158.565 290.872 16.589 268.997 0.201 268.997 174.802 290.872 158.565" fill="#7c9c7f"/>
      <polygon points="363.788 175.001 385.663 175.001 385.663 88.207 363.788 104.442 363.788 175.001" fill="#efd522"/>
      <polygon points="385.663 0.001 363.788 0.001 363.788 71.214 385.663 87.602 385.663 0.001" fill="#efd522"/>
      <polygon points="385.663 88.207 385.663 87.602 363.788 71.214 363.788 104.442 385.663 88.207" fill="#91a345"/>
    </g>
    <g>
      <polygon points="518.087 86.891 429.806 21.521 400.743 21.521 400.743 153.48 429.403 153.48 518.087 86.891" fill="#6bae82"/>
      <polygon points="516.87 153.48 429.403 153.48 400.743 175.001 516.87 175.001 516.87 153.48" fill="#efd522"/>
      <polygon points="400.743 153.48 400.743 175.001 429.403 153.48 400.743 153.48" fill="#91a345"/>
      <polygon points="516.87 21.521 516.87 0.001 400.743 0.001 429.806 21.521 516.87 21.521" fill="#4bb0c3"/>
      <polygon points="400.743 0.001 400.743 21.521 429.806 21.521 400.743 0.001" fill="#359882"/>
    </g>
    <g>
      <polygon points="532.989 0.001 576.739 87.501 591.322 58.334 605.905 87.501 649.655 0.001 532.989 0.001" fill="#efd522"/>
      <polygon points="576.739 87.501 532.989 175.001 649.655 175.001 605.905 87.501 591.322 116.667 576.739 87.501" fill="#f16922"/>
      <polygon points="576.739 87.501 591.322 116.667 605.905 87.501 591.322 58.334 576.739 87.501" fill="#ed9724"/>
    </g>
  </g>
</svg>
