<svg xmlns="http://www.w3.org/2000/svg" width="1710.202" height="935.989" viewBox="0 0 1710.202 935.989">
  <title>type-spec-outline</title>
  <g>
    <g>
      <path d="M252.219,190.583l15.218-45.5H253.022V118.2h23.407L315.965,0,355.5,118.2h23.406v26.886H364.5l15.219,45.5Zm16.6-49.635,6.225-18.614H257.159v18.614Zm-10.856,45.5h116l-13.836-41.363H271.8Zm18.33-54.806-3.112,9.307h85.564l-6.224-18.614H279.409Zm4.5-13.443H351.14L315.965,13.038Zm76.094,4.136,6.224,18.614h11.661V122.334Z" fill="#4eb5c5"/>
      <path d="M473.9,96.246l60.577,29.461L405.618,191.9V3.2L534.542,66.341ZM409.754,65.054l59.438,28.9,55.972-27.6L409.754,9.834Zm0,58.214,54.743-27-54.743-26.62Zm59.452-24.706L409.754,127.88v57.248l115.475-59.319Z" fill="#4eb5c5"/>
      <path d="M596.138,96.739l93.521,93.844H560.576V4.451H689.719ZM564.711,71.064v50.857l7.915-7.806,17.645-17.4L564.712,71.064Zm0-5.859,28.506,28.6L679.635,8.587H564.712Zm28.479,34.44L573.38,119.181l-8.668,8.549v58.717H679.7Z" fill="#4eb5c5"/>
      <path d="M843.353,97.517,715.792,192.636V2.4ZM719.928,184.394,836.434,97.517,719.928,10.64Z" fill="#4eb5c5"/>
      <path d="M907.52,164.11h86.828v26.522h-124.9V4.5h124.9V31.005H908L997,96.92ZM895.458,26.869l-1.142-.844L873.585,10.671v16.2Zm5.592,4.136H873.585V164.11H900.62l89.459-67.173ZM873.585,184.428l12.938-9.729,8.587-6.452H873.585Zm28.425-16.181-9.7,7.279L877.705,186.5H990.212V168.247ZM877.771,8.636l24.636,18.233h87.8V8.636Z" fill="#4eb5c5"/>
      <path d="M1150.669,96.933l-127.563,95.779V4.512h124.9V31.017h-86.349ZM1027.242,26.88h21.89l-1.142-.843-20.748-15.354Zm0,157.559,116.494-87.49-89.029-65.932h-27.465Zm4.187-175.791,24.652,18.232h87.788V8.648Z" fill="#4eb5c5"/>
      <path d="M1306.13,63.268V190.632H1176.764V126.04l.065-119.125.017-2.415h129.068l-93.165,91.875,15.42,43.778ZM1180.9,121.97l27.069-26.7-11.913-33.8-15.089-42.818Zm44.027,21.393-15.437-43.779-28.59,28.193V186.5h.265l.993-.976Zm-43.1-134.727,16.016,45.433,13.385,37.987,84.595-83.42Zm58.288,177.86-3.127-8.885-10.555-29.946-38.219,37.689-1.142,1.142Zm61.879-113.334-72.3,71.293,11.433,32.445,3.375,9.6h57.494Z" fill="#4eb5c5"/>
      <path d="M1457.7,4.5V190.632h-26.886V119.29l-71.689,53.225v18.117h-26.886V4.5h26.886V22.782l71.689,53.705V4.5ZM1354.99,24.85,1336.377,10.9V184.246l9.3-6.916,9.314-6.9ZM1340.232,8.636l2.9,2.167,11.862,8.885V8.636Zm14.758,166.94-3.54,2.631-11.168,8.289h14.708Zm75.826-93.91-71.689-53.722V167.353l71.689-53.209Zm22.75-73.03h-18.613V79.6l18.613,13.931Zm-18.613,102.431,17.372-12.889.265-.2L1438.3,87.258l-3.342-2.5Zm18.613-8.653-9.315,6.9-9.3,6.916V186.5h18.613Z" fill="#4eb5c5"/>
    </g>
    <g>
      <path d="M222.443,925.312,351.1,781.41v143.9ZM352.811,739.18l-128.656,143.9V739.18ZM228.292,872.25,343.564,743.316H228.292Zm118.671-80.008L231.688,921.176H346.963Z" fill="#f7b5c8"/>
      <path d="M504.171,739.18V935.989L447.529,766.065H378.7V739.18Zm-58.019,22.749-6.2-18.613H382.841v18.613Zm53.884-18.613H444.308l6.2,18.613h49.524Zm0,22.749H451.89L500.036,910.5Z" fill="#f7b5c8"/>
      <path d="M655.742,734.463v190.9H530.281v-190.9l62.74,94.092Zm-121.325,182L590.538,832.3l-56.121-84.166Zm115.4,4.766-56.8-85.207-56.8,85.207Zm1.787-173.1L595.5,832.3l56.1,84.164Z" fill="#f7b5c8"/>
      <path d="M808.928,739.18l-63.534,190.6L681.86,739.18ZM745.394,916.7l57.8-173.388H687.6Z" fill="#f7b5c8"/>
      <path d="M1023.574,739.18l-63.533,190.6-30.755-92.262-30.754,92.262L835,739.18Zm-96.467,91.8-10.541-31.62-18.682-56.046H840.737l57.8,173.388Zm2.181-6.54,12.6-37.795,14.442-43.331H902.245l13.709,41.126ZM960.041,916.7l57.795-173.388H960.689l-20.474,61.425-8.748,26.242Z" fill="#f7b5c8"/>
      <path d="M1130.987,832.247l46.534,93.065H1049.5l46.533-93.065L1049.5,739.18h128.025Zm-32.647-4.625,15.167-30.332,15.167,30.332,42.154-84.306h-114.64Zm30.336,9.248L1113.509,867.2l-15.167-30.333-42.154,84.306h114.64Zm-15.169-30.332-12.856,25.709,12.856,25.709,12.855-25.709Z" fill="#f7b5c8"/>
      <path d="M1331.249,739.18V925.312H1264.92l49.99-74.638-111.5-111.494Zm-4.135,93.276V743.318H1213.4l103.856,103.854,1.856-2.772,8-11.944Zm0,30.419-9.22-9.218-45.223,67.519h54.443Zm0-5.847V839.889l-.162.242-6.713,10.022,6.873,6.875Z" fill="#f7b5c8"/>
      <path d="M1485.988,883.083l-128.654-143.9h128.654Zm1.711,42.229H1359.045V781.41Zm-124.518-4.136h115.273L1363.181,792.242Zm118.672-177.86H1366.579L1481.853,872.25Z" fill="#f7b5c8"/>
    </g>
    <g>
      <path d="M62.083,523.913l27.959,55.919H0l27.958-55.919V399.5L0,343.581H90.042L62.083,399.5ZM27.958,348.831H8.492l19.466,38.928Zm0,186.825L8.492,574.582H27.958ZM56.833,348.831H33.208v49.428l11.813,23.626,11.812-23.626Zm0,61.171L45.021,433.627,33.208,410V513.413l11.813-23.625,11.812,23.625Zm0,115.152L45.021,501.527,33.208,525.154v49.428H56.833Zm5.25-137.394L81.55,348.831H62.083Zm0,147.892v38.93H81.55Z" fill="#66ae7f"/>
      <path d="M295.068,343.581V579.832H131.335L260.841,481.8V343.581ZM260.841,488.387l-113.871,86.2H260.841Zm28.975,86.2V466.455l-23.725,17.959v90.168Zm.005-114.713V348.831H266.093v129l23.725-17.959Z" fill="#66ae7f"/>
      <path d="M494.981,341.011V582.534L370.388,489.188v90.721H336.263V343.658h34.125V435.2ZM341.513,457.038l7.455-5.629,16.17-12.242V348.908H341.513Zm23.625,28.223-4.075-3.044-19.55-14.659v107.1h23.625Zm0-39.5L349.3,457.73l-6.048,4.578,17.052,12.769,4.83,3.633Zm124.593-94.207L370.388,441.792v40.844l119.343,89.4Z" fill="#66ae7f"/>
      <path d="M700.77,579.832H536.24V343.581h34.125v138.9Zm-135.655-231H541.49V460.926l23.625,17.635Zm0,136.282L541.49,467.477V574.582h23.625Zm5.25,89.469h114.6l-114.6-85.548Z" fill="#66ae7f"/>
      <path d="M901.4,343.583V579.834H867.279V449l-45.486,136.5L776.285,449v130.83H742.16V343.583ZM771.035,433.254,747.41,362.378V574.584h23.625Zm-22.617-84.421,22.617,67.83v-67.83Zm118.861,0H776.285v83.58l45.508,136.5,45.486-136.5Zm5.25,67.83,22.617-67.83H872.529Zm23.625-54.285-23.625,70.876v141.33h23.625Z" fill="#66ae7f"/>
      <path d="M1102.062,343.642V579.894H942.8V343.642ZM948.048,568.6,1021.3,458.745l73.226-109.852H948.048Zm148.764-213.655-73.248,109.852L950.337,574.644h146.475Z" fill="#66ae7f"/>
      <path d="M1306.838,433.313,1177.561,481.3v98.6h-34.125V343.642h34.125v17.683Zm-134.527-68.9-11.824-6.573-11.8-6.574V486.4l11.8-4.367,11.824-4.39Zm0,118.84-11.824,4.368-11.8,4.389v82.635h23.625Zm0-134.359h-17.094l5.628,3.129,11.466,6.384Zm5.25,126.8,116.782-43.344-116.782-65.016Z" fill="#66ae7f"/>
      <path d="M1507.275,343.642v119.45l-.441.671-35.763,53.4h36.2v62.727h-43.743V528.423l-34.482,51.471h-81.019V343.642ZM1353.281,568.6l73.228-109.851,73.248-109.852H1353.281Zm148.744-213.655L1428.8,464.793,1355.55,574.644h70.707l37.275-55.65,1.218-1.827,37.275-55.671Zm-33.243,167.476v52.227h33.243V522.417Z" fill="#66ae7f"/>
      <path d="M1625.655,586.164V470.412l-76.986,115.5v-242.3h161.512l-81.019,121.549,81.04,121Zm0-125.224,74.719-112.077H1553.919v219.7Zm5.25,119.974h69.469l-69.469-103.7Z" fill="#66ae7f"/>
    </g>
  </g>
</svg>
