<svg xmlns="http://www.w3.org/2000/svg" width="1554.469" height="764.999" viewBox="0 0 1554.469 764.999">
  <title>type-spec-black</title>
  <g>
    <g>
      <path d="M908.916,78.75h-8.78L908.916,105H838.678l8.779-26.249h-8.779V65.625h13.169L873.8,0l21.949,65.621h13.17Z" fill="#fff"/>
      <path d="M959.362,51.776l34.994,17.017L923.877,105V0L994.356,34.52Z" fill="#fff"/>
      <path d="M1027.008,52.045,1079.779,105h-70.4V0h70.4Z" fill="#fff"/>
      <path d="M1165.127,52.5l-70.4,52.5V0Z" fill="#fff"/>
      <path d="M1197.267,92.088h52.476V105h-69.672V0h69.672V12.915h-52.235l52.967,39.221Z" fill="#fff"/>
      <path d="M1335.822,52.136,1265.419,105V0h69.672V12.915h-52.237Z" fill="#fff"/>
      <path d="M1423.011,35.571V105h-72.244V69.432L1350.81,0h70.359L1368.954,51.5l9.777,27.741Z" fill="#fff"/>
      <path d="M908.675,492.745l-17.5,26.127h17.5V545h-17.5V518.872L873.677,545h-35V440h70Z" fill="#fff"/>
      <path d="M993.723,440l-70,105V440Zm-35,52.741,35,52.254h-35Z" fill="#fff"/>
      <path d="M1079.136,440l-70.363,78.7V440Zm.486,26.294V545H1009.26Z" fill="#fff"/>
      <path d="M1164.569,440V545l-30.624-91.871h-39.373V440Z" fill="#fff"/>
      <path d="M1249.617,440V545h-70V440l35,52.5Z" fill="#fff"/>
      <path d="M1334.664,440l-35,105-35-104.995Z" fill="#fff"/>
    </g>
    <g>
      <path d="M70,220V325H56.872V282.666L13.124,315.139V325H0V220H13.124v9.952l43.748,32.775V220Z"/>
      <path d="M110.143,301.057,122.113,325H85.048l11.971-23.942V243.946L85.048,220h37.065l-11.97,23.942Z"/>
      <path d="M206.77,220V325H137.1l56.5-42.77V220Z"/>
      <path d="M291.6,220V325l-56.63-42.422V325H221.844V220h13.124v42.817Z"/>
      <path d="M376.588,325h-70V220h13.124v62.537Z"/>
      <path d="M461.637,220V325H448.513V259.377L426.639,325l-21.875-65.622V325H391.64V220Z"/>
      <path d="M546.523,220V325H476.688V220.247l56.742,85.111V220Z"/>
      <path d="M561.587,325V220h70V325Z"/>
      <path d="M716.875,259.35l-57.116,21.2V325H646.635V220h13.124v7.549Z"/>
      <path d="M461.271,660l-35,105-17.742-53.227L390.788,765,355.79,660Z"/>
      <path d="M519.987,712.5,546.235,765h-70l26.249-52.5L476.239,660h70Z"/>
      <path d="M630.961,660V765H596.124l28.142-42.016L561.287,660Z"/>
      <path d="M646.035,686.3,716.4,765H646.035ZM716.884,660v78.7L646.521,660Z"/>
    </g>
    <rect x="116.202" width="595.121" height="107.087"/>
    <rect x="217.808" y="440.371" width="493.516" height="107.087"/>
    <rect x="836.178" y="220.948" width="718.291" height="105.013" fill="#fff"/>
    <rect x="836.178" y="659.644" width="361.552" height="105.013" fill="#fff"/>
  </g>
</svg>
