<svg xmlns="http://www.w3.org/2000/svg" width="584.336" height="1004.999" viewBox="0 0 584.336 1004.999">
  <title>type-spec-color</title>
  <g>
    <g>
      <polygon points="70.241 105 61.461 78.75 8.78 78.75 0 105 70.241 105" fill="#4bb0c3"/>
      <polygon points="35.121 0 13.17 65.625 57.071 65.625 35.121 0" fill="#4bb0c3"/>
      <polygon points="0 65.625 0 78.75 8.78 78.75 13.17 65.625 0 65.625" fill="#efd522"/>
      <polygon points="70.241 78.75 70.241 65.625 57.071 65.625 61.461 78.75 70.241 78.75" fill="#efd522"/>
      <polygon points="57.071 65.625 13.17 65.625 8.78 78.75 61.461 78.75 57.071 65.625" fill="#6ba443"/>
    </g>
    <g>
      <polygon points="155.682 34.517 85.199 0 85.199 34.517 120.688 51.775 155.682 34.517" fill="#f26e21"/>
      <polygon points="120.688 51.775 85.199 69.276 85.199 105 155.682 68.793 120.688 51.775" fill="#efd522"/>
      <polygon points="85.199 34.517 85.199 69.276 120.688 51.775 85.199 34.517" fill="#ed9724"/>
    </g>
    <g>
      <polygon points="241.104 0 170.698 0 170.698 34.35 188.331 52.044 241.104 0" fill="#f7b5c8"/>
      <polygon points="188.331 52.044 170.698 69.432 170.698 105 241.104 105 188.331 52.044" fill="#66ae7f"/>
      <polygon points="170.698 34.35 170.698 69.432 188.331 52.044 170.698 34.35" fill="#7c9c7f"/>
    </g>
    <polygon points="256.046 0 256.046 105 326.452 52.5 256.046 0" fill="#efd522"/>
    <g>
      <polygon points="411.8 52.134 358.831 12.912 341.394 12.912 341.394 92.088 358.59 92.088 411.8 52.134" fill="#6bae82"/>
      <polygon points="411.07 92.088 358.59 92.088 341.394 105 411.07 105 411.07 92.088" fill="#efd522"/>
      <polygon points="341.394 92.088 341.394 105 358.59 92.088 341.394 92.088" fill="#91a345"/>
      <polygon points="411.07 12.912 411.07 0 341.394 0 358.831 12.912 411.07 12.912" fill="#4bb0c3"/>
      <polygon points="341.394 0 341.394 12.912 358.831 12.912 341.394 0" fill="#359882"/>
    </g>
    <g>
      <polygon points="444.178 12.912 426.741 12.912 426.741 105 497.147 52.134 444.178 12.912" fill="#f26e21"/>
      <polygon points="496.417 12.912 496.417 0 426.741 0 444.178 12.912 496.417 12.912" fill="#f7b5c8"/>
      <polygon points="426.741 0 426.741 12.912 444.178 12.912 426.741 0" fill="#db7d7d"/>
    </g>
    <g>
      <polygon points="582.494 0 512.132 0 530.279 51.494 582.494 0" fill="#f7b5c8"/>
      <polygon points="540.055 79.238 549.134 105 584.336 105 584.336 35.568 540.055 79.238" fill="#4eb5c5"/>
      <polygon points="530.279 51.494 512.089 69.432 512.089 105 513.93 105 540.055 79.238 530.279 51.494" fill="#efd522"/>
      <polygon points="512.132 0 530.279 51.494 512.089 69.432 512.132 0" fill="#eda024"/>
      <polygon points="513.93 105 549.134 105 540.055 79.238 513.93 105" fill="#5a8fb0"/>
    </g>
    <g>
      <polygon points="203.272 242.665 203.272 222.728 159.522 189.953 159.522 275.139 203.272 242.665" fill="#66ae7f"/>
      <polygon points="146.397 285 159.522 285 159.522 275.139 146.397 284.881 146.397 285" fill="#f7b5c8"/>
      <polygon points="159.522 180 146.397 180 146.397 180.12 159.522 189.953 159.522 180" fill="#f7b5c8"/>
      <polygon points="159.522 275.139 159.522 189.953 146.397 180.12 146.397 284.881 159.522 275.139" fill="#7c9c7f"/>
      <polygon points="203.272 285 216.397 285 216.397 232.924 203.272 242.665 203.272 285" fill="#efd522"/>
      <polygon points="216.397 180 203.272 180 203.272 222.728 216.397 232.561 216.397 180" fill="#efd522"/>
      <polygon points="216.397 232.924 216.397 232.561 203.272 222.728 203.272 242.665 216.397 232.924" fill="#91a345"/>
    </g>
    <g>
      <polygon points="249.979 247.932 254.612 257.199 256.541 261.057 256.541 203.943 254.612 207.801 249.979 217.068 245.345 207.801 243.416 203.943 243.416 261.057 245.345 257.199 249.979 247.932" fill="#f16922"/>
      <polygon points="268.513 180 256.541 180 256.541 203.943 268.513 180" fill="#4eb5c5"/>
      <polygon points="231.445 180 243.417 203.943 243.417 180 231.445 180" fill="#4eb5c5"/>
      <polygon points="249.979 217.068 254.612 207.801 256.541 203.943 256.541 180 243.416 180 243.416 203.943 245.345 207.801 249.979 217.068" fill="#5d97b5"/>
      <polygon points="231.445 285 243.417 285 243.417 261.057 231.445 285" fill="#6bae82"/>
      <polygon points="256.541 285 268.513 285 256.541 261.057 256.541 285" fill="#6bae82"/>
      <polygon points="254.612 257.199 249.979 247.932 245.345 257.199 243.416 261.057 243.416 285 256.541 285 256.541 261.057 254.612 257.199" fill="#865526"/>
    </g>
    <g>
      <polygon points="283.493 285 340 285 340 242.228 283.493 285" fill="#4bb0c3"/>
      <polygon points="340 242.228 353.17 232.259 353.17 180 340 180 340 242.228" fill="#6baf81"/>
      <polygon points="340 285 353.17 285 353.17 232.259 340 242.228 340 285" fill="#359882"/>
    </g>
    <g>
      <polygon points="368.241 285 381.366 285 381.366 242.575 368.241 232.743 368.241 285" fill="#f7b5c8"/>
      <polygon points="368.241 180 368.241 232.743 381.366 222.819 381.366 180 368.241 180" fill="#f7b5c8"/>
      <polygon points="437.999 285 437.999 180 381.366 222.819 381.366 242.575 437.999 285" fill="#efd522"/>
      <polygon points="381.366 242.575 381.366 222.819 368.241 232.743 381.366 242.575" fill="#eda024"/>
    </g>
    <g>
      <polygon points="87.072 360 87.072 412.743 100.197 422.541 100.197 360 87.072 360" fill="#f7b5c8"/>
      <polygon points="157.072 465 100.197 422.541 100.197 465 157.072 465" fill="#f26e21"/>
      <polygon points="87.072 465 100.197 465 100.197 422.541 87.072 412.743 87.072 465" fill="#db7d7d"/>
    </g>
    <g>
      <path d="M242.121,465H229V399.375L242.121,360Z" fill="#efd522"/>
      <polygon points="228.996 360 228.996 399.375 207.121 465 185.245 399.375 185.245 360 228.996 360" fill="#4bb0c3"/>
      <polygon points="242.121 360 228.996 399.375 228.996 360 242.121 360" fill="#6ba443"/>
      <polygon points="172.12 465 172.12 360 185.245 399.375 185.245 465 172.12 465" fill="#6baf81"/>
      <polygon points="185.245 360 185.245 399.375 172.12 360 185.245 360" fill="#359882"/>
    </g>
    <g>
      <polygon points="257.168 360.242 257.168 465 313.912 465 313.912 445.358 257.168 360.242" fill="#f26e21"/>
      <polygon points="327.007 360 313.912 360 313.912 445.358 327.007 465 327.007 360" fill="#efd522"/>
      <polygon points="313.912 445.358 313.912 465 327.007 465 313.912 445.358" fill="#ed9724"/>
    </g>
    <g>
      <polygon points="342.066 360 342.066 465 412.066 360 342.066 360" fill="#f7b5c8"/>
      <polygon points="342.066 465 412.066 465 412.066 360 342.066 465" fill="#efd522"/>
    </g>
    <g>
      <polygon points="497.357 399.348 440.239 367.549 440.239 420.548 497.357 399.348" fill="#f26e21"/>
      <polygon points="427.114 465 440.239 465 440.239 420.548 427.114 425.419 427.114 465" fill="#66ae7f"/>
      <polygon points="427.114 360 427.114 360.243 440.239 367.549 440.239 360 427.114 360" fill="#66ae7f"/>
      <polygon points="427.114 425.419 440.239 420.548 440.239 367.549 427.114 360.243 427.114 425.419" fill="#865526"/>
    </g>
    <g>
      <polygon points="171.746 644.999 241.747 539.999 171.746 539.999 171.746 644.999" fill="#4bb0c3"/>
      <polygon points="206.747 644.999 241.747 592.742 241.747 539.999 171.746 644.999 206.747 644.999" fill="#f26e21"/>
      <rect x="224.246" y="618.87" width="17.5" height="26.129" fill="#f6b2c5"/>
    </g>
    <g>
      <polygon points="256.794 644.999 326.794 539.999 256.794 539.999 256.794 644.999" fill="#6baf81"/>
      <polygon points="291.794 644.999 291.794 592.742 326.794 644.999 291.794 644.999" fill="#efd522"/>
    </g>
    <g>
      <polygon points="341.842 539.999 341.842 618.703 412.207 539.999 341.842 539.999" fill="#66ae7f"/>
      <polygon points="412.694 566.295 342.329 644.999 412.694 644.999 412.694 566.295" fill="#f7b5c8"/>
    </g>
    <g>
      <polygon points="69.374 719.999 69.374 733.124 108.748 733.124 104.373 719.999 69.374 719.999" fill="#f16922"/>
      <polygon points="139.373 824.999 139.373 733.124 108.748 733.124 139.373 824.999" fill="#4eb5c5"/>
      <polygon points="108.748 733.124 139.373 733.124 139.373 719.999 104.373 719.999 108.748 733.124" fill="#5d97b5"/>
    </g>
    <g>
      <polygon points="154.421 719.999 154.421 824.999 189.421 772.499 154.421 719.999" fill="#f7b5c8"/>
      <polygon points="224.421 824.999 224.421 719.999 189.421 772.499 224.421 824.999" fill="#f26e21"/>
      <polygon points="154.421 824.999 224.421 824.999 189.421 772.499 154.421 824.999" fill="#db7d7d"/>
    </g>
    <polygon points="274.468 825 309.468 720 239.469 720 274.468 825" fill="#6bae82"/>
    <g>
      <polygon points="324.517 719.999 359.517 824.999 377.26 771.77 360.003 719.999 324.517 719.999" fill="#4eb5c5"/>
      <polygon points="377.26 771.77 395.003 824.999 430.002 719.999 394.516 719.999 377.26 771.77" fill="#f6b2c5"/>
      <polygon points="360.003 719.999 377.26 771.77 394.516 719.999 360.003 719.999" fill="#5a8fb0"/>
    </g>
    <g>
      <polygon points="444.966 719.999 471.216 772.499 479.965 754.999 488.715 772.499 514.965 719.999 444.966 719.999" fill="#efd522"/>
      <polygon points="471.216 772.499 444.966 824.999 514.965 824.999 488.715 772.499 479.965 789.999 471.216 772.499" fill="#f16922"/>
      <polygon points="471.216 772.499 479.965 789.999 488.715 772.499 479.965 754.999 471.216 772.499" fill="#ed9724"/>
    </g>
    <g>
      <polygon points="249.259 1004.999 284.097 1004.999 284.097 969.676 277.401 962.981 249.259 1004.999" fill="#efd522"/>
      <polygon points="277.401 962.981 284.097 952.983 284.097 899.999 214.42 899.999 277.401 962.981" fill="#6baf81"/>
      <polygon points="284.097 969.676 284.097 952.983 277.401 962.981 284.097 969.676" fill="#91a345"/>
    </g>
    <g>
      <polygon points="370.02 978.703 370.02 899.999 299.655 899.999 370.02 978.703" fill="#4eb5c5"/>
      <polygon points="299.168 1004.999 369.533 1004.999 299.168 926.295 299.168 1004.999" fill="#f6b2c5"/>
    </g>
  </g>
</svg>
