<svg xmlns="http://www.w3.org/2000/svg" width="1352.739" height="346.001" viewBox="0 0 1352.739 346.001">
  <title>type-spec-monochrome</title>
  <g>
    <g>
      <polygon points="123.982 126 113.446 94.5 50.228 94.5 39.692 126 123.982 126"/>
      <polygon points="81.837 0 55.496 78.75 108.178 78.75 81.837 0"/>
      <polygon points="39.692 78.75 39.692 94.5 50.228 94.5 55.496 78.75 39.692 78.75" fill="#999"/>
      <polygon points="123.982 94.5 123.982 78.75 108.178 78.75 113.446 94.5 123.982 94.5" fill="#999"/>
      <polygon points="108.178 78.75 55.496 78.75 50.228 94.5 113.446 94.5 108.178 78.75" fill="#4d4d4d"/>
    </g>
    <g>
      <polygon points="226.51 41.421 141.931 0 141.931 41.421 184.517 62.131 226.51 41.421"/>
      <polygon points="184.517 62.131 141.931 83.131 141.931 126 226.51 82.552 184.517 62.131" fill="#999"/>
      <polygon points="141.931 41.421 141.931 83.131 184.517 62.131 141.931 41.421" fill="#4d4d4d"/>
    </g>
    <g>
      <polygon points="329.017 0 244.53 0 244.53 41.22 265.689 62.453 329.017 0" fill="#999"/>
      <polygon points="265.689 62.453 244.53 83.318 244.53 126 329.017 126 265.689 62.453"/>
      <polygon points="244.53 41.22 244.53 83.318 265.689 62.453 244.53 41.22" fill="#4d4d4d"/>
    </g>
    <g>
      <polygon points="367.871 15.495 346.947 15.495 346.947 126 431.435 62.561 367.871 15.495" fill="#999"/>
      <polygon points="430.557 15.495 430.557 0 346.947 0 367.871 15.495 430.557 15.495"/>
      <polygon points="346.947 0 346.947 15.495 367.871 15.495 346.947 0" fill="#4d4d4d"/>
    </g>
    <g>
      <polygon points="533.852 62.561 470.29 15.495 449.365 15.495 449.365 110.505 470 110.505 533.852 62.561"/>
      <polygon points="532.976 110.505 470 110.505 449.365 126 532.976 126 532.976 110.505" fill="#999"/>
      <polygon points="449.365 110.505 449.365 126 470 110.505 449.365 110.505" fill="#4d4d4d"/>
      <polygon points="532.976 15.495 532.976 0 449.365 0 470.29 15.495 532.976 15.495" fill="#999"/>
      <polygon points="449.365 0 449.365 15.495 470.29 15.495 449.365 0" fill="#4d4d4d"/>
    </g>
    <g>
      <polygon points="572.706 15.495 551.782 15.495 551.782 126 636.27 62.561 572.706 15.495" fill="#999"/>
      <polygon points="635.392 15.495 635.392 0 551.782 0 572.706 15.495 635.392 15.495"/>
      <polygon points="551.782 0 551.782 15.495 572.706 15.495 551.782 0" fill="#4d4d4d"/>
    </g>
    <g>
      <polygon points="738.686 0 654.251 0 676.027 61.793 738.686 0"/>
      <polygon points="687.759 95.085 698.654 126 740.897 126 740.897 42.682 687.759 95.085"/>
      <polygon points="676.027 61.793 654.2 83.318 654.2 126 656.409 126 687.759 95.085 676.027 61.793" fill="#999"/>
      <polygon points="654.251 0 676.027 61.793 654.2 83.318 654.251 0" fill="#4d4d4d"/>
      <polygon points="656.409 126 698.654 126 687.759 95.085 656.409 126" fill="#4d4d4d"/>
    </g>
    <g>
      <polygon points="827.207 75.198 827.207 51.274 774.707 11.944 774.707 114.166 827.207 75.198" fill="#999"/>
      <polygon points="758.957 126 774.707 126 774.707 114.166 758.957 125.857 758.957 126"/>
      <polygon points="774.707 0 758.957 0 758.957 0.144 774.707 11.944 774.707 0"/>
      <polygon points="774.707 114.166 774.707 11.944 758.957 0.144 758.957 125.857 774.707 114.166" fill="#4d4d4d"/>
      <polygon points="827.207 126 842.957 126 842.957 63.509 827.207 75.198 827.207 126"/>
      <polygon points="842.957 0 827.207 0 827.207 51.274 842.957 63.073 842.957 0"/>
      <polygon points="842.957 63.509 842.957 63.073 827.207 51.274 827.207 75.198 842.957 63.509" fill="#4d4d4d"/>
    </g>
    <g>
      <polygon points="883.255 81.519 888.815 92.639 891.13 97.269 891.13 28.731 888.815 33.361 883.255 44.481 877.695 33.361 875.38 28.731 875.38 97.269 877.695 92.639 883.255 81.519" fill="#999"/>
      <polygon points="905.496 0 891.13 0 891.13 28.731 905.496 0"/>
      <polygon points="861.015 0 875.38 28.731 875.38 0 861.015 0"/>
      <polygon points="883.255 44.481 888.815 33.361 891.13 28.731 891.13 0 875.38 0 875.38 28.731 877.695 33.361 883.255 44.481" fill="#4d4d4d"/>
      <polygon points="861.015 126 875.38 126 875.38 97.269 861.015 126"/>
      <polygon points="891.13 126 905.496 126 891.13 97.269 891.13 126"/>
      <polygon points="888.815 92.639 883.255 81.519 877.695 92.639 875.38 97.269 875.38 126 891.13 126 891.13 97.269 888.815 92.639" fill="#4d4d4d"/>
    </g>
    <g>
      <polygon points="923.472 126 991.28 126 991.28 74.673 923.472 126"/>
      <polygon points="991.28 74.673 1007.085 62.71 1007.085 0 991.28 0 991.28 74.673" fill="#999"/>
      <polygon points="991.28 126 1007.085 126 1007.085 62.71 991.28 74.673 991.28 126" fill="#4d4d4d"/>
    </g>
    <g>
      <polygon points="1025.17 126 1040.92 126 1040.92 75.09 1025.17 63.292 1025.17 126"/>
      <polygon points="1025.17 0 1025.17 63.292 1040.92 51.383 1040.92 0 1025.17 0"/>
      <polygon points="1108.879 126 1108.879 0 1040.92 51.383 1040.92 75.09 1108.879 126" fill="#999"/>
      <polygon points="1040.92 75.09 1040.92 51.383 1025.17 63.292 1040.92 75.09" fill="#4d4d4d"/>
    </g>
    <g>
      <polygon points="1126.868 0 1126.868 63.292 1142.618 75.049 1142.618 0 1126.868 0"/>
      <polygon points="1210.867 126 1142.618 75.049 1142.618 126 1210.867 126" fill="#999"/>
      <polygon points="1126.868 126 1142.618 126 1142.618 75.049 1126.868 63.292 1126.868 126" fill="#4d4d4d"/>
    </g>
    <g>
      <path d="M1312.926,126h-15.75V47.25L1312.926,0Z" fill="#999"/>
      <polygon points="1297.176 0 1297.176 47.25 1270.926 126 1244.675 47.25 1244.675 0 1297.176 0"/>
      <polygon points="1312.926 0 1297.176 47.25 1297.176 0 1312.926 0" fill="#4d4d4d"/>
      <polygon points="1228.925 126 1228.925 0 1244.675 47.25 1244.675 126 1228.925 126" fill="#999"/>
      <polygon points="1244.675 0 1244.675 47.25 1228.925 0 1244.675 0" fill="#4d4d4d"/>
    </g>
    <g>
      <polygon points="0 220.291 0 346 68.093 346 68.093 322.43 0 220.291" fill="#999"/>
      <polygon points="83.807 220 68.093 220 68.093 322.43 83.807 346 83.807 220"/>
      <polygon points="68.093 322.43 68.093 346 83.807 346 68.093 322.43" fill="#4d4d4d"/>
    </g>
    <g>
      <polygon points="101.879 220 101.879 346 185.879 220 101.879 220" fill="#999"/>
      <polygon points="101.879 346 185.879 346 185.879 220 101.879 346"/>
    </g>
    <g>
      <polygon points="288.228 267.218 219.687 229.059 219.687 292.657 288.228 267.218"/>
      <polygon points="203.937 346 219.687 346 219.687 292.657 203.937 298.503 203.937 346" fill="#999"/>
      <polygon points="203.937 220 203.937 220.292 219.687 229.059 219.687 220 203.937 220" fill="#999"/>
      <polygon points="203.937 298.503 219.687 292.657 219.687 229.059 203.937 220.292 203.937 298.503" fill="#4d4d4d"/>
    </g>
    <g>
      <polygon points="306.175 346 390.176 220 306.175 220 306.175 346"/>
      <polygon points="348.176 346 390.176 283.292 390.176 220 306.175 346 348.176 346" fill="#999"/>
      <rect x="369.175" y="314.646" width="21" height="31.354"/>
    </g>
    <g>
      <polygon points="408.233 346 492.234 220 408.233 220 408.233 346" fill="#999"/>
      <polygon points="450.233 346 450.233 283.292 492.234 346 450.233 346"/>
    </g>
    <g>
      <polygon points="510.291 220 510.291 314.445 594.729 220 510.291 220" fill="#999"/>
      <polygon points="595.313 251.555 510.875 346 595.313 346 595.313 251.555"/>
    </g>
    <g>
      <polygon points="613.25 220 613.25 235.75 660.498 235.75 655.249 220 613.25 220"/>
      <polygon points="697.249 346 697.249 235.75 660.498 235.75 697.249 346" fill="#999"/>
      <polygon points="660.498 235.75 697.249 235.75 697.249 220 655.249 220 660.498 235.75" fill="#4d4d4d"/>
    </g>
    <g>
      <polygon points="715.307 220 715.307 346 757.307 283 715.307 220"/>
      <polygon points="799.307 346 799.307 220 757.307 283 799.307 346" fill="#999"/>
      <polygon points="715.307 346 799.307 346 757.307 283 715.307 346" fill="#4d4d4d"/>
    </g>
    <path d="M901.36,220.006,859.362,346l-42-125.995Z"/>
    <g>
      <polygon points="919.422 220 961.422 346 982.714 282.125 962.005 220 919.422 220"/>
      <polygon points="982.714 282.125 1004.006 346 1046.005 220 1003.422 220 982.714 282.125" fill="#999"/>
      <polygon points="962.005 220 982.714 282.125 1003.422 220 962.005 220" fill="#4d4d4d"/>
    </g>
    <g>
      <polygon points="1063.961 220 1095.461 283 1105.96 262 1116.461 283 1147.961 220 1063.961 220" fill="#999"/>
      <polygon points="1095.461 283 1063.961 346 1147.961 346 1116.461 283 1105.96 304 1095.461 283"/>
      <polygon points="1095.461 283 1105.96 304 1116.461 283 1105.96 262 1095.461 283" fill="#4d4d4d"/>
    </g>
    <g>
      <polygon points="1207.825 346 1249.631 346 1249.631 303.613 1241.596 295.578 1207.825 346" fill="#999"/>
      <polygon points="1241.596 295.578 1249.631 283.581 1249.631 220 1166.019 220 1241.596 295.578"/>
      <polygon points="1249.631 303.613 1249.631 283.581 1241.596 295.578 1249.631 303.613" fill="#4d4d4d"/>
    </g>
    <g>
      <polygon points="1352.739 314.445 1352.739 220 1268.301 220 1352.739 314.445"/>
      <polygon points="1267.716 346 1352.155 346 1267.716 251.555 1267.716 346" fill="#999"/>
    </g>
  </g>
</svg>
