<svg xmlns="http://www.w3.org/2000/svg" width="828.675" height="1060.869" viewBox="0 0 828.675 1060.869">
  <title>vision-poster</title>
  <g>
    <g>
      <path d="M387.9,140.057h79.815v19.637H361.749V0H467.717V19.638H388.269l80.56,59.652Z"/>
      <path d="M361.307,236.684V349.816H347.166V304.2L300.028,339.19v10.626H285.887V236.684h14.141v10.724l47.138,35.314V236.684Z"/>
      <path d="M544.549,236.684V349.816H469.3V236.946l61.137,91.707V236.684Z"/>
      <path d="M303.955,477.67l-58.007,43.255V434.416Z"/>
      <path d="M444.461,477.369l-58.007,43.556V434.416h57.4v10.638H400.82Z"/>
      <path d="M584.5,434.416v86.509h-57.54V434.616l46.751,70.126V434.416Z"/>
      <path d="M247.709,623.1l-43.437,16.121v33.805h-9.98V593.174h9.98v5.741Z"/>
      <path d="M377.109,593.174v79.848l-23.29-69.866H323.877v-9.982Z"/>
      <path d="M486.616,633.1l19.961,39.924h-53.23L473.308,633.1l-19.961-39.924h53.23Z"/>
      <path d="M583.184,632.914h52.133l-52.5-39.74H635.8v49.675H596.309l39.862,30.173H583.184Z"/>
      <path d="M184.512,747.165v66.546H140.148V747.165l19.409,58.228H165.1Z"/>
      <path d="M275.343,780.284h43.448l-43.755-33.119H319.2v41.4H286.281L319.5,813.711h-44.16Z"/>
      <path d="M454.641,780.438,410.02,813.711V747.165Z"/>
      <path d="M555.242,747.165v66.546l-19.41-58.228H510.877v-8.318Z"/>
      <path d="M690.389,780.206l-44.623,33.5V747.165h44.159v8.182H656.817Z"/>
      <path d="M153.988,912.678,124.305,923.7v23.1h-6.821V892.231h6.821v3.923Z"/>
      <path d="M247.088,892.231V946.8h-6.821v-22l-22.735,16.875V946.8h-6.821V892.231h6.821V897.4l22.735,17.031v-22.2Z"/>
      <path d="M340.237,892.231V946.8H303.86V892.231l15.915,47.744h4.547Z"/>
      <path d="M433.3,892.231V946.8H397.008V892.357L426.5,936.588V892.231Z"/>
      <path d="M526.454,892.231V946.8l-15.915-47.744H490.077v-6.821Z"/>
      <path d="M619.816,919.513,583.227,946.8V892.231Z"/>
      <path d="M676.784,919.388h35.625l-35.878-27.157h36.21v33.945h-26.99l27.241,20.62H676.784Z"/>
      <path d="M137,1020.945v39.924H110.449v-39.831l21.575,32.363v-32.456Z"/>
      <path d="M234.232,1035.906l-21.717,8.06v16.9h-4.991v-39.924h4.991v2.871Z"/>
      <path d="M321.347,1040.906l9.981,19.963H304.712l9.981-19.963-9.981-19.961h26.616Z"/>
      <path d="M428.46,1020.945v39.924l-11.645-34.933H401.844v-4.991Z"/>
      <path d="M499.158,1040.815h26.067l-26.251-19.87h26.493v24.837H505.721l19.931,15.087H499.158Z"/>
      <path d="M622.935,1040.769l-26.771,20.1v-39.924h26.493v4.909H602.794Z"/>
      <path d="M720.025,1020.945v39.924h-4.991v-16.1L698.4,1057.118v3.751H693.41v-39.924H698.4v3.784l16.633,12.462v-16.246Z"/>
    </g>
    <g>
      <path d="M16.193,60.3a3.971,3.971,0,0,1,4.28,3.936c0,2.328-1.421,3.44-3.92,4.073-1.8.463-2.79.84-2.79,2.175v.239h6.658v1.8H11.8V70.649c0-2.258,1.574-3.286,3.816-3.868,1.815-.479,2.876-1.129,2.876-2.6a2.042,2.042,0,0,0-2.259-2.122,2.312,2.312,0,0,0-2.5,2.481v.377H11.761v-.411C11.761,61.749,13.78,60.3,16.193,60.3Z" fill="#231f20"/>
      <path d="M26.118,60.3c2.739,0,4.518,1.763,4.518,4.843v2.773c0,3.166-1.779,4.844-4.518,4.844S21.6,71.077,21.6,67.911V65.138C21.6,62.058,23.38,60.3,26.118,60.3Zm-2.533,7.719c0,1.866.838,2.978,2.533,2.978,1.745,0,2.533-1.164,2.533-2.978V65.036c0-1.832-.942-2.978-2.533-2.978-1.626,0-2.533,1.2-2.533,2.978Z" fill="#231f20"/>
      <path d="M11.043,86.912a3.97,3.97,0,0,1,4.28,3.936c0,2.328-1.422,3.44-3.921,4.073-1.8.463-2.789.84-2.789,2.174v.24h6.658v1.8H6.645V97.266c0-2.258,1.574-3.286,3.816-3.868,1.815-.479,2.876-1.129,2.876-2.6a2.042,2.042,0,0,0-2.26-2.122,2.312,2.312,0,0,0-2.5,2.481v.377H6.61v-.411C6.61,88.366,8.629,86.912,11.043,86.912Z" fill="#231f20"/>
      <path d="M20.968,86.912c2.738,0,4.518,1.763,4.518,4.843v2.773c0,3.166-1.78,4.844-4.518,4.844s-4.519-1.678-4.519-4.844V91.755C16.449,88.675,18.229,86.912,20.968,86.912Zm-2.534,7.719c0,1.866.839,2.978,2.534,2.978,1.745,0,2.532-1.164,2.532-2.978V91.653c0-1.832-.941-2.978-2.532-2.978-1.627,0-2.534,1.2-2.534,2.978Z" fill="#231f20"/>
      <path d="M31.268,86.912c2.739,0,4.519,1.763,4.519,4.843v2.773c0,3.166-1.78,4.844-4.519,4.844s-4.519-1.678-4.519-4.844V91.755C26.749,88.675,28.53,86.912,31.268,86.912Zm-2.533,7.719c0,1.866.838,2.978,2.533,2.978,1.746,0,2.533-1.164,2.533-2.978V91.653c0-1.832-.941-2.978-2.533-2.978-1.626,0-2.533,1.2-2.533,2.978Z" fill="#231f20"/>
    </g>
    <line y1="78.577" x2="42.446" y2="78.577" fill="none" stroke="#231f20" stroke-miterlimit="10" stroke-width="0.951"/>
    <g>
      <path d="M16.193,274.159a3.971,3.971,0,0,1,4.28,3.936c0,2.328-1.421,3.44-3.92,4.073-1.8.463-2.79.84-2.79,2.175v.239h6.658v1.8H11.8v-1.866c0-2.258,1.574-3.286,3.816-3.868,1.815-.479,2.876-1.129,2.876-2.6a2.042,2.042,0,0,0-2.259-2.122,2.312,2.312,0,0,0-2.5,2.481v.377H11.761v-.411C11.761,275.614,13.78,274.159,16.193,274.159Z" fill="#231f20"/>
      <path d="M26.118,274.159c2.739,0,4.518,1.763,4.518,4.843v2.773c0,3.166-1.779,4.844-4.518,4.844s-4.519-1.678-4.519-4.844V279C21.6,275.922,23.38,274.159,26.118,274.159Zm-2.533,7.719c0,1.866.838,2.978,2.533,2.978,1.745,0,2.533-1.164,2.533-2.978V278.9c0-1.832-.942-2.978-2.533-2.978-1.626,0-2.533,1.2-2.533,2.978Z" fill="#231f20"/>
      <path d="M13.5,301.015V313H11.515v-9.875h-.207l-1.9,3.234H7.3l3.166-5.34Z" fill="#231f20"/>
      <path d="M19.727,300.776c2.739,0,4.519,1.763,4.519,4.843v2.773c0,3.166-1.78,4.844-4.519,4.844s-4.519-1.678-4.519-4.844v-2.773C15.208,302.539,16.989,300.776,19.727,300.776ZM17.194,308.5c0,1.866.838,2.978,2.533,2.978,1.746,0,2.533-1.164,2.533-2.978v-2.978c0-1.832-.941-2.978-2.533-2.978-1.626,0-2.533,1.2-2.533,2.978Z" fill="#231f20"/>
      <path d="M30.028,300.776c2.739,0,4.518,1.763,4.518,4.843v2.773c0,3.166-1.779,4.844-4.518,4.844s-4.519-1.678-4.519-4.844v-2.773C25.509,302.539,27.29,300.776,30.028,300.776ZM27.5,308.5c0,1.866.838,2.978,2.533,2.978,1.745,0,2.533-1.164,2.533-2.978v-2.978c0-1.832-.942-2.978-2.533-2.978-1.626,0-2.533,1.2-2.533,2.978Z" fill="#231f20"/>
    </g>
    <line y1="292.441" x2="42.446" y2="292.441" fill="none" stroke="#231f20" stroke-miterlimit="10" stroke-width="0.951"/>
    <g>
      <path d="M16.193,459.416a3.97,3.97,0,0,1,4.28,3.936c0,2.328-1.421,3.44-3.92,4.073-1.8.462-2.79.839-2.79,2.174v.24h6.658v1.8H11.8V469.77c0-2.258,1.574-3.286,3.816-3.868,1.815-.479,2.876-1.129,2.876-2.6a2.043,2.043,0,0,0-2.259-2.123,2.312,2.312,0,0,0-2.5,2.482v.377H11.761v-.411C11.761,460.87,13.78,459.416,16.193,459.416Z" fill="#231f20"/>
      <path d="M26.118,459.416c2.739,0,4.518,1.762,4.518,4.843v2.773c0,3.166-1.779,4.844-4.518,4.844S21.6,470.2,21.6,467.032v-2.773C21.6,461.178,23.38,459.416,26.118,459.416Zm-2.533,7.719c0,1.866.838,2.978,2.533,2.978,1.745,0,2.533-1.164,2.533-2.978v-2.978c0-1.832-.942-2.979-2.533-2.979-1.626,0-2.533,1.2-2.533,2.979Z" fill="#231f20"/>
      <path d="M20.678,486.272V488l-4.81,10.252H13.66l4.775-10.184H11.812v-1.8Z" fill="#231f20"/>
      <path d="M25.606,486.033c2.738,0,4.518,1.762,4.518,4.843v2.773c0,3.166-1.78,4.844-4.518,4.844s-4.519-1.678-4.519-4.844v-2.773C21.087,487.8,22.867,486.033,25.606,486.033Zm-2.534,7.719c0,1.866.839,2.978,2.534,2.978,1.745,0,2.532-1.164,2.532-2.978v-2.978c0-1.832-.941-2.979-2.532-2.979-1.627,0-2.534,1.2-2.534,2.979Z" fill="#231f20"/>
    </g>
    <line y1="477.698" x2="42.446" y2="477.698" fill="none" stroke="#231f20" stroke-miterlimit="10" stroke-width="0.951"/>
    <g>
      <path d="M16.193,613.414a3.97,3.97,0,0,1,4.28,3.936c0,2.328-1.421,3.44-3.92,4.073-1.8.463-2.79.84-2.79,2.174v.24h6.658v1.8H11.8v-1.866c0-2.259,1.574-3.286,3.816-3.869,1.815-.479,2.876-1.129,2.876-2.6a2.042,2.042,0,0,0-2.259-2.122,2.312,2.312,0,0,0-2.5,2.482v.377H11.761v-.412C11.761,614.867,13.78,613.414,16.193,613.414Z" fill="#231f20"/>
      <path d="M26.118,613.414c2.739,0,4.518,1.762,4.518,4.842v2.774c0,3.165-1.779,4.844-4.518,4.844S21.6,624.2,21.6,621.03v-2.774C21.6,615.176,23.38,613.414,26.118,613.414Zm-2.533,7.718c0,1.866.838,2.978,2.533,2.978,1.745,0,2.533-1.164,2.533-2.978v-2.978c0-1.831-.942-2.978-2.533-2.978-1.626,0-2.533,1.2-2.533,2.978Z" fill="#231f20"/>
      <path d="M20.121,640.27v1.8H14.045v3.491h.205a2.886,2.886,0,0,1,2.688-1.387,3.6,3.6,0,0,1,3.577,3.869,4.179,4.179,0,0,1-4.382,4.451c-2.652,0-4.467-1.627-4.467-4.126v-.36h1.969v.223a2.28,2.28,0,0,0,2.447,2.5,2.345,2.345,0,0,0,2.448-2.6,2.05,2.05,0,0,0-2.089-2.277,1.81,1.81,0,0,0-1.728.994H12.077V640.27Z" fill="#231f20"/>
      <path d="M26.11,640.031c2.738,0,4.518,1.762,4.518,4.842v2.774c0,3.165-1.78,4.844-4.518,4.844s-4.519-1.679-4.519-4.844v-2.774C21.591,641.793,23.371,640.031,26.11,640.031Zm-2.534,7.718c0,1.866.839,2.978,2.534,2.978,1.745,0,2.532-1.164,2.532-2.978v-2.978c0-1.831-.941-2.978-2.532-2.978-1.627,0-2.534,1.2-2.534,2.978Z" fill="#231f20"/>
    </g>
    <line y1="631.696" x2="42.446" y2="631.696" fill="none" stroke="#231f20" stroke-miterlimit="10" stroke-width="0.951"/>
    <g>
      <path d="M16.748,761.589a3.526,3.526,0,0,1,3.8,3.5c0,2.068-1.262,3.056-3.481,3.618-1.6.41-2.478.745-2.478,1.929v.214H20.5v1.6H12.842v-1.658c0-2,1.4-2.918,3.389-3.434,1.612-.426,2.554-1,2.554-2.312a1.814,1.814,0,0,0-2.006-1.884,2.053,2.053,0,0,0-2.22,2.2v.336H12.811v-.365A3.633,3.633,0,0,1,16.748,761.589Z" fill="#231f20"/>
      <path d="M25.57,761.589c2.433,0,4.014,1.566,4.014,4.3v2.462c0,2.813-1.581,4.3-4.014,4.3s-4.013-1.489-4.013-4.3v-2.462C21.557,763.155,23.138,761.589,25.57,761.589Zm-2.25,6.855c0,1.658.746,2.646,2.25,2.646,1.551,0,2.25-1.034,2.25-2.646V765.8c0-1.626-.836-2.645-2.25-2.645-1.444,0-2.25,1.063-2.25,2.645Z" fill="#231f20"/>
      <path d="M19.355,788.42v6.931h1.764v1.6H19.355v2.112H17.591v-2.112H12.2v-1.536l4.394-6.992Zm-5.32,6.931h3.556v-5.4h-.182Z" fill="#231f20"/>
      <path d="M25.806,788.206c2.432,0,4.013,1.566,4.013,4.3v2.462c0,2.813-1.581,4.3-4.013,4.3s-4.013-1.489-4.013-4.3v-2.462C21.793,789.772,23.374,788.206,25.806,788.206Zm-2.25,6.855c0,1.658.745,2.646,2.25,2.646,1.55,0,2.249-1.034,2.249-2.646v-2.644c0-1.626-.835-2.645-2.249-2.645-1.444,0-2.25,1.063-2.25,2.645Z" fill="#231f20"/>
    </g>
    <line y1="779.835" x2="42.446" y2="779.835" fill="none" stroke="#231f20" stroke-miterlimit="10" stroke-width="0.951"/>
    <g>
      <path d="M16.748,901.273a3.526,3.526,0,0,1,3.8,3.5c0,2.068-1.262,3.056-3.481,3.618-1.6.411-2.478.745-2.478,1.93v.213H20.5v1.6H12.842v-1.658c0-2,1.4-2.919,3.389-3.435,1.612-.425,2.554-1,2.554-2.312a1.814,1.814,0,0,0-2.006-1.884,2.054,2.054,0,0,0-2.22,2.2v.336H12.811v-.366A3.632,3.632,0,0,1,16.748,901.273Z" fill="#231f20"/>
      <path d="M25.57,901.273c2.433,0,4.014,1.565,4.014,4.3v2.462c0,2.812-1.581,4.3-4.014,4.3s-4.013-1.489-4.013-4.3v-2.462C21.557,902.838,23.138,901.273,25.57,901.273Zm-2.25,6.855c0,1.658.746,2.645,2.25,2.645,1.551,0,2.25-1.034,2.25-2.645v-2.644c0-1.627-.836-2.646-2.25-2.646-1.444,0-2.25,1.064-2.25,2.646Z" fill="#231f20"/>
      <path d="M20.4,928.1v1.551l-3.146,2.6v.167h.379a2.836,2.836,0,0,1,2.95,3.024c0,2.113-1.627,3.511-3.922,3.511-2.478,0-4.014-1.459-4.014-3.616v-.457h1.748v.41a2.037,2.037,0,0,0,2.266,2.1,1.946,1.946,0,0,0,2.158-1.946c0-1.169-.836-1.732-1.961-1.732H15.122v-1.6L18.01,929.7H12.933v-1.6Z" fill="#231f20"/>
      <path d="M25.585,927.89c2.432,0,4.013,1.565,4.013,4.3v2.462c0,2.812-1.581,4.3-4.013,4.3s-4.013-1.489-4.013-4.3v-2.462C21.572,929.455,23.153,927.89,25.585,927.89Zm-2.25,6.855c0,1.658.745,2.645,2.25,2.645,1.551,0,2.25-1.034,2.25-2.645V932.1c0-1.627-.836-2.646-2.25-2.646-1.444,0-2.25,1.064-2.25,2.646Z" fill="#231f20"/>
    </g>
    <line y1="919.519" x2="42.446" y2="919.519" fill="none" stroke="#231f20" stroke-miterlimit="10" stroke-width="0.951"/>
    <g>
      <path d="M17.312,1025.442a3.089,3.089,0,0,1,3.329,3.062c0,1.81-1.106,2.677-3.05,3.169-1.4.36-2.17.652-2.17,1.691v.186H20.6v1.4H13.889v-1.45c0-1.758,1.226-2.557,2.97-3.01,1.411-.373,2.237-.88,2.237-2.023a1.589,1.589,0,0,0-1.758-1.653,1.8,1.8,0,0,0-1.944,1.931v.293H13.863v-.319A3.181,3.181,0,0,1,17.312,1025.442Z" fill="#231f20"/>
      <path d="M25.03,1025.442c2.131,0,3.516,1.37,3.516,3.767v2.158c0,2.463-1.385,3.769-3.516,3.769s-3.515-1.306-3.515-3.769v-2.158C21.515,1026.812,22.9,1025.442,25.03,1025.442Zm-1.97,6c0,1.452.652,2.317,1.97,2.317,1.359,0,1.971-.906,1.971-2.317v-2.317c0-1.424-.733-2.317-1.971-2.317-1.264,0-1.97.932-1.97,2.317Z" fill="#231f20"/>
      <path d="M17.312,1048.257a3.088,3.088,0,0,1,3.329,3.061c0,1.81-1.106,2.677-3.05,3.169-1.4.361-2.17.652-2.17,1.692v.186H20.6v1.4H13.889v-1.45c0-1.759,1.226-2.557,2.97-3.01,1.411-.373,2.237-.88,2.237-2.024a1.589,1.589,0,0,0-1.758-1.652,1.8,1.8,0,0,0-1.944,1.931v.293H13.863v-.319A3.181,3.181,0,0,1,17.312,1048.257Z" fill="#231f20"/>
      <path d="M25.03,1048.257c2.131,0,3.516,1.37,3.516,3.767v2.157c0,2.464-1.385,3.769-3.516,3.769s-3.515-1.305-3.515-3.769v-2.157C21.515,1049.627,22.9,1048.257,25.03,1048.257Zm-1.97,6c0,1.452.652,2.317,1.97,2.317,1.359,0,1.971-.906,1.971-2.317v-2.317c0-1.424-.733-2.317-1.971-2.317-1.264,0-1.97.932-1.97,2.317Z" fill="#231f20"/>
    </g>
    <line y1="1041.771" x2="42.446" y2="1041.771" fill="none" stroke="#231f20" stroke-miterlimit="10" stroke-width="0.951"/>
    <g>
      <path d="M783.268,60.294a3.971,3.971,0,0,1,4.28,3.936c0,2.328-1.422,3.44-3.921,4.073-1.8.463-2.789.84-2.789,2.175v.239H787.5v1.8H778.87V70.648c0-2.258,1.574-3.286,3.815-3.868,1.816-.479,2.876-1.129,2.876-2.6a2.042,2.042,0,0,0-2.259-2.122,2.312,2.312,0,0,0-2.5,2.481v.377h-1.968V64.5C778.835,61.749,780.855,60.294,783.268,60.294Z" fill="#231f20"/>
      <path d="M793.192,60.294c2.739,0,4.519,1.763,4.519,4.843V67.91c0,3.166-1.78,4.844-4.519,4.844s-4.519-1.678-4.519-4.844V65.137C788.673,62.057,790.453,60.294,793.192,60.294Zm-2.532,7.719c0,1.866.837,2.978,2.532,2.978,1.745,0,2.533-1.164,2.533-2.978V65.035c0-1.832-.942-2.978-2.533-2.978-1.626,0-2.532,1.2-2.532,2.978Z" fill="#231f20"/>
      <path d="M803.493,60.294c2.738,0,4.519,1.763,4.519,4.843V67.91c0,3.166-1.781,4.844-4.519,4.844s-4.519-1.678-4.519-4.844V65.137C798.974,62.057,800.754,60.294,803.493,60.294Zm-2.533,7.719c0,1.866.838,2.978,2.533,2.978,1.745,0,2.532-1.164,2.532-2.978V65.035c0-1.832-.941-2.978-2.532-2.978-1.627,0-2.533,1.2-2.533,2.978Z" fill="#231f20"/>
      <path d="M816.086,64.076V62.142a1.542,1.542,0,0,1,1.592-1.609h2.207v1.558h-1.437c-.308,0-.479.171-.479.513v1.472h2.362v1.575h-2.362v6.863h-1.883V65.651h-2.294V64.076Z" fill="#231f20"/>
      <path d="M823.1,64.076V61.321h1.866v2.755h2.482v1.575h-2.482v4.758c0,.342.171.513.479.513h1.524v1.592h-2.328a1.483,1.483,0,0,1-1.541-1.54V65.651h-2.31V64.076Z" fill="#231f20"/>
      <path d="M789.993,99.354a4.012,4.012,0,0,1-4.332-4.006V91.173c0-2.756,1.866-4.262,4.434-4.262,2.516,0,4.176,1.471,4.176,3.765h-2a1.92,1.92,0,0,0-2.174-2,2.186,2.186,0,0,0-2.447,2.361v1.473h.2a2.937,2.937,0,0,1,2.705-1.267,3.77,3.77,0,0,1,3.818,3.953A4.1,4.1,0,0,1,789.993,99.354Zm-2.345-4.16a2.38,2.38,0,1,0,2.378-2.4A2.25,2.25,0,0,0,787.648,95.194Z" fill="#231f20"/>
      <path d="M801.062,87.15V99.131h-1.984V89.256h-.206l-1.9,3.234h-2.105l3.167-5.34Z" fill="#231f20"/>
      <path d="M809.874,90.693v1.233h.24a2.555,2.555,0,0,1,4.586.085h.239a2.526,2.526,0,0,1,2.482-1.472,2.752,2.752,0,0,1,2.808,2.91v5.682h-1.883V93.6a1.363,1.363,0,0,0-1.541-1.4,1.616,1.616,0,0,0-1.729,1.78v5.152h-1.882V93.6a1.377,1.377,0,0,0-1.558-1.4,1.624,1.624,0,0,0-1.729,1.78v5.152h-1.865V90.693Z" fill="#231f20"/>
    </g>
    <line x1="781.883" y1="78.577" x2="824.329" y2="78.577" fill="none" stroke="#231f20" stroke-miterlimit="10" stroke-width="0.951"/>
    <g>
      <path d="M785.723,274.4v11.981h-1.985V276.5h-.206l-1.9,3.234h-2.106l3.168-5.34Z" fill="#231f20"/>
      <path d="M791.952,274.158c2.738,0,4.517,1.763,4.517,4.843v2.773c0,3.166-1.779,4.844-4.517,4.844s-4.519-1.678-4.519-4.844V279C787.433,275.921,789.213,274.158,791.952,274.158Zm-2.535,7.719c0,1.866.84,2.978,2.535,2.978,1.745,0,2.532-1.164,2.532-2.978V278.9c0-1.832-.941-2.978-2.532-2.978-1.627,0-2.535,1.2-2.535,2.978Z" fill="#231f20"/>
      <path d="M802.253,274.158c2.738,0,4.517,1.763,4.517,4.843v2.773c0,3.166-1.779,4.844-4.517,4.844s-4.52-1.678-4.52-4.844V279C797.733,275.921,799.514,274.158,802.253,274.158Zm-2.535,7.719c0,1.866.839,2.978,2.535,2.978,1.745,0,2.532-1.164,2.532-2.978V278.9c0-1.832-.941-2.978-2.532-2.978-1.627,0-2.535,1.2-2.535,2.978Z" fill="#231f20"/>
      <path d="M814.844,277.94v-1.934a1.541,1.541,0,0,1,1.591-1.609h2.21v1.558h-1.439c-.308,0-.479.171-.479.514v1.471h2.362v1.575h-2.362v6.863h-1.883v-6.863h-2.293V277.94Z" fill="#231f20"/>
      <path d="M821.861,277.94v-2.755h1.864v2.755h2.482v1.575h-2.482v4.758c0,.342.172.513.481.513h1.522v1.592H823.4a1.482,1.482,0,0,1-1.539-1.54v-5.323h-2.312V277.94Z" fill="#231f20"/>
      <path d="M785.725,301.014v1.746l-3.543,2.927v.188h.427a3.194,3.194,0,0,1,3.322,3.406c0,2.379-1.833,3.954-4.417,3.954-2.789,0-4.518-1.643-4.518-4.074v-.513h1.969v.462a2.291,2.291,0,0,0,2.549,2.362,2.191,2.191,0,0,0,2.43-2.191c0-1.318-.941-1.951-2.207-1.951h-1.952v-1.8l3.253-2.721h-5.717v-1.8Z" fill="#231f20"/>
      <path d="M791.371,313.218a4.012,4.012,0,0,1-4.332-4.006v-4.175c0-2.756,1.866-4.262,4.434-4.262,2.516,0,4.175,1.471,4.175,3.765h-2a1.921,1.921,0,0,0-2.174-2,2.186,2.186,0,0,0-2.447,2.361v1.473h.2a2.934,2.934,0,0,1,2.7-1.267,3.77,3.77,0,0,1,3.817,3.953A4.1,4.1,0,0,1,791.371,313.218Zm-2.345-4.16a2.379,2.379,0,1,0,2.378-2.4A2.25,2.25,0,0,0,789.026,309.058Z" fill="#231f20"/>
      <path d="M798.521,310.273a1.481,1.481,0,1,1-1.489,1.473A1.431,1.431,0,0,1,798.521,310.273Z" fill="#231f20"/>
      <path d="M809.748,301.014v1.8h-6.077V306.3h.206a2.882,2.882,0,0,1,2.687-1.386,3.6,3.6,0,0,1,3.577,3.867,4.177,4.177,0,0,1-4.381,4.451c-2.653,0-4.467-1.626-4.467-4.125v-.359h1.968v.222a2.281,2.281,0,0,0,2.447,2.5,2.345,2.345,0,0,0,2.449-2.6,2.05,2.05,0,0,0-2.089-2.277,1.814,1.814,0,0,0-1.729.993H801.7v-6.573Z" fill="#231f20"/>
      <path d="M818.318,304.557v1.233h.24a2.555,2.555,0,0,1,4.587.085h.24a2.524,2.524,0,0,1,2.482-1.472,2.753,2.753,0,0,1,2.808,2.91V313h-1.883v-5.528a1.362,1.362,0,0,0-1.541-1.4,1.614,1.614,0,0,0-1.729,1.779V313H821.64v-5.528a1.376,1.376,0,0,0-1.558-1.4,1.622,1.622,0,0,0-1.729,1.779V313h-1.866v-8.438Z" fill="#231f20"/>
    </g>
    <line x1="781.883" y1="292.441" x2="824.329" y2="292.441" fill="none" stroke="#231f20" stroke-miterlimit="10" stroke-width="0.951"/>
    <g>
      <path d="M792.9,459.655v1.729l-4.808,10.252h-2.21l4.776-10.184h-6.623v-1.8Z" fill="#231f20"/>
      <path d="M797.83,459.416c2.739,0,4.519,1.762,4.519,4.843v2.773c0,3.166-1.78,4.844-4.519,4.844s-4.519-1.678-4.519-4.844v-2.773C793.311,461.178,795.091,459.416,797.83,459.416Zm-2.533,7.719c0,1.866.838,2.978,2.533,2.978,1.745,0,2.532-1.164,2.532-2.978v-2.978c0-1.832-.941-2.979-2.532-2.979-1.626,0-2.533,1.2-2.533,2.979Z" fill="#231f20"/>
      <path d="M810.424,463.2v-1.934a1.54,1.54,0,0,1,1.591-1.609h2.207v1.558h-1.437c-.308,0-.479.171-.479.513V463.2h2.362v1.575h-2.362v6.863h-1.882v-6.863h-2.295V463.2Z" fill="#231f20"/>
      <path d="M817.438,463.2v-2.756H819.3V463.2h2.482v1.575H819.3v4.758c0,.342.171.513.479.513h1.524v1.592h-2.328a1.483,1.483,0,0,1-1.541-1.54v-5.323h-2.31V463.2Z" fill="#231f20"/>
      <path d="M782.839,486.033a3.97,3.97,0,0,1,4.28,3.936c0,2.328-1.42,3.44-3.919,4.073-1.8.462-2.791.839-2.791,2.174v.24h6.658v1.8h-8.626v-1.866c0-2.259,1.574-3.286,3.817-3.868,1.814-.479,2.876-1.129,2.876-2.6a2.043,2.043,0,0,0-2.259-2.123,2.312,2.312,0,0,0-2.5,2.482v.377h-1.968v-.411C778.408,487.487,780.428,486.033,782.839,486.033Z" fill="#231f20"/>
      <path d="M793.842,486.272v11.981h-1.985v-9.876h-.206l-1.9,3.235h-2.106l3.168-5.34Z" fill="#231f20"/>
      <path d="M797.228,495.531A1.481,1.481,0,1,1,795.739,497,1.431,1.431,0,0,1,797.228,495.531Z" fill="#231f20"/>
      <path d="M808.662,486.272v1.745l-3.545,2.927v.189h.429a3.192,3.192,0,0,1,3.32,3.406c0,2.379-1.831,3.954-4.415,3.954-2.791,0-4.519-1.644-4.519-4.074v-.513H801.9v.462a2.293,2.293,0,0,0,2.551,2.362,2.192,2.192,0,0,0,2.43-2.191c0-1.318-.941-1.952-2.207-1.952h-1.952v-1.8l3.251-2.721h-5.716v-1.8Z" fill="#231f20"/>
      <path d="M817.078,489.815v1.232h.239a2.554,2.554,0,0,1,4.586.086h.24a2.526,2.526,0,0,1,2.482-1.473,2.752,2.752,0,0,1,2.807,2.911v5.682H825.55v-5.528a1.363,1.363,0,0,0-1.541-1.4,1.615,1.615,0,0,0-1.729,1.78v5.152H820.4v-5.528a1.377,1.377,0,0,0-1.558-1.4,1.623,1.623,0,0,0-1.729,1.78v5.152h-1.866v-8.438Z" fill="#231f20"/>
    </g>
    <line x1="781.883" y1="477.698" x2="824.329" y2="477.698" fill="none" stroke="#231f20" stroke-miterlimit="10" stroke-width="0.951"/>
    <g>
      <path d="M792.345,613.653v1.8H786.27v3.491h.205a2.886,2.886,0,0,1,2.688-1.387,3.6,3.6,0,0,1,3.576,3.869,4.178,4.178,0,0,1-4.382,4.451c-2.651,0-4.467-1.627-4.467-4.126v-.36h1.97v.223a2.28,2.28,0,0,0,2.447,2.5,2.344,2.344,0,0,0,2.447-2.6,2.05,2.05,0,0,0-2.088-2.277,1.813,1.813,0,0,0-1.729.994H784.3v-6.573Z" fill="#231f20"/>
      <path d="M798.335,613.414c2.739,0,4.517,1.762,4.517,4.842v2.774c0,3.165-1.778,4.844-4.517,4.844s-4.519-1.679-4.519-4.844v-2.774C793.816,615.176,795.6,613.414,798.335,613.414Zm-2.534,7.718c0,1.866.839,2.978,2.534,2.978,1.745,0,2.532-1.164,2.532-2.978v-2.978c0-1.831-.941-2.978-2.532-2.978-1.626,0-2.534,1.2-2.534,2.978Z" fill="#231f20"/>
      <path d="M810.927,617.2v-1.935a1.54,1.54,0,0,1,1.591-1.608h2.209v1.558h-1.439c-.308,0-.479.171-.479.512V617.2h2.362v1.574h-2.362v6.864h-1.882V618.77h-2.293V617.2Z" fill="#231f20"/>
      <path d="M817.943,617.2V614.44h1.864V617.2h2.483v1.574h-2.483v4.759c0,.341.173.512.481.512h1.522v1.593h-2.328a1.483,1.483,0,0,1-1.539-1.541V618.77h-2.311V617.2Z" fill="#231f20"/>
      <path d="M784.081,640.27v11.981H782.1v-9.875h-.206l-1.9,3.234h-2.105l3.165-5.34Z" fill="#231f20"/>
      <path d="M794.091,640.27v1.8h-6.075v3.491h.2a2.888,2.888,0,0,1,2.688-1.387,3.6,3.6,0,0,1,3.576,3.869,4.178,4.178,0,0,1-4.381,4.451c-2.652,0-4.468-1.627-4.468-4.126v-.36h1.97v.223a2.28,2.28,0,0,0,2.447,2.5,2.345,2.345,0,0,0,2.448-2.6,2.05,2.05,0,0,0-2.089-2.277,1.813,1.813,0,0,0-1.729.994h-2.634V640.27Z" fill="#231f20"/>
      <path d="M797.238,649.529A1.481,1.481,0,1,1,795.749,651,1.431,1.431,0,0,1,797.238,649.529Z" fill="#231f20"/>
      <path d="M804.545,640.031a3.97,3.97,0,0,1,4.28,3.936c0,2.328-1.422,3.44-3.921,4.073-1.8.463-2.789.84-2.789,2.174v.24h6.658v1.8h-8.626v-1.866c0-2.259,1.575-3.286,3.815-3.869,1.816-.479,2.876-1.129,2.876-2.6a2.042,2.042,0,0,0-2.259-2.122,2.313,2.313,0,0,0-2.5,2.482v.377h-1.968v-.412C800.112,641.484,802.132,640.031,804.545,640.031Z" fill="#231f20"/>
      <path d="M817.052,643.813v1.233h.239a2.556,2.556,0,0,1,4.588.085h.24a2.524,2.524,0,0,1,2.482-1.472,2.752,2.752,0,0,1,2.807,2.909v5.683h-1.882v-5.529a1.363,1.363,0,0,0-1.541-1.4,1.615,1.615,0,0,0-1.729,1.781v5.152h-1.883v-5.529a1.376,1.376,0,0,0-1.557-1.4,1.623,1.623,0,0,0-1.729,1.781v5.152h-1.866v-8.438Z" fill="#231f20"/>
    </g>
    <line x1="781.883" y1="631.696" x2="824.329" y2="631.696" fill="none" stroke="#231f20" stroke-miterlimit="10" stroke-width="0.951"/>
    <g>
      <path d="M792.654,761.8v6.933h1.763v1.595h-1.763v2.113H790.89v-2.113h-5.4v-1.536l4.394-6.992Zm-5.322,6.933h3.558v-5.4h-.182Z" fill="#231f20"/>
      <path d="M799.1,761.588c2.432,0,4.014,1.567,4.014,4.3v2.464c0,2.813-1.582,4.3-4.014,4.3s-4.013-1.489-4.013-4.3v-2.464C795.091,763.155,796.671,761.588,799.1,761.588Zm-2.251,6.856c0,1.656.747,2.646,2.251,2.646,1.55,0,2.25-1.034,2.25-2.646V765.8c0-1.626-.836-2.643-2.25-2.643-1.445,0-2.251,1.063-2.251,2.643Z" fill="#231f20"/>
      <path d="M810.3,764.948v-1.717a1.37,1.37,0,0,1,1.415-1.43h1.961v1.383H812.4c-.273,0-.425.153-.425.457v1.307h2.1v1.4h-2.1v6.1H810.3v-6.1h-2.037v-1.4Z" fill="#231f20"/>
      <path d="M816.536,764.948V762.5h1.658v2.447h2.2v1.4h-2.2v4.226c0,.3.152.457.425.457h1.353v1.413H817.9a1.317,1.317,0,0,1-1.368-1.369v-4.727h-2.052v-1.4Z" fill="#231f20"/>
      <path d="M786.183,788.418v10.641h-1.764v-8.771h-.182l-1.687,2.874h-1.87l2.813-4.744Z" fill="#231f20"/>
      <path d="M791.6,788.205a3.528,3.528,0,0,1,3.8,3.5c0,2.067-1.263,3.055-3.482,3.617-1.6.411-2.478.745-2.478,1.931v.214h5.913v1.595h-7.66V797.4c0-2.007,1.4-2.918,3.388-3.436,1.612-.425,2.555-1,2.555-2.31a1.813,1.813,0,0,0-2.007-1.884,2.053,2.053,0,0,0-2.219,2.2v.335h-1.749v-.364A3.633,3.633,0,0,1,791.6,788.205Z" fill="#231f20"/>
      <path d="M797.9,796.641a1.316,1.316,0,1,1-1.322,1.309A1.271,1.271,0,0,1,797.9,796.641Z" fill="#231f20"/>
      <path d="M804.39,788.205a3.526,3.526,0,0,1,3.8,3.5c0,2.067-1.261,3.055-3.481,3.617-1.6.411-2.477.745-2.477,1.931v.214h5.914v1.595h-7.663V797.4c0-2.007,1.4-2.918,3.39-3.436,1.612-.425,2.553-1,2.553-2.31a1.813,1.813,0,0,0-2-1.884,2.053,2.053,0,0,0-2.22,2.2v.335h-1.748v-.364A3.633,3.633,0,0,1,804.39,788.205Z" fill="#231f20"/>
      <path d="M815.507,791.565v1.094h.214a2.269,2.269,0,0,1,4.073.076h.214a2.242,2.242,0,0,1,2.2-1.307,2.444,2.444,0,0,1,2.493,2.584v5.047h-1.673V794.15a1.21,1.21,0,0,0-1.368-1.248,1.436,1.436,0,0,0-1.536,1.582v4.575h-1.671V794.15a1.222,1.222,0,0,0-1.383-1.248,1.441,1.441,0,0,0-1.535,1.582v4.575h-1.658v-7.494Z" fill="#231f20"/>
    </g>
    <line x1="781.883" y1="779.835" x2="824.329" y2="779.835" fill="none" stroke="#231f20" stroke-miterlimit="10" stroke-width="0.951"/>
    <g>
      <path d="M793.693,901.486v1.551l-3.145,2.6v.167h.379a2.836,2.836,0,0,1,2.95,3.025c0,2.112-1.626,3.51-3.923,3.51-2.477,0-4.012-1.459-4.012-3.616v-.457h1.747v.41a2.036,2.036,0,0,0,2.265,2.1,1.946,1.946,0,0,0,2.159-1.945c0-1.17-.835-1.733-1.96-1.733h-1.734v-1.6l2.889-2.418H786.23v-1.6Z" fill="#231f20"/>
      <path d="M798.883,901.273c2.432,0,4.012,1.565,4.012,4.3v2.462c0,2.812-1.58,4.3-4.012,4.3s-4.014-1.489-4.014-4.3v-2.462C794.869,902.838,796.45,901.273,798.883,901.273Zm-2.251,6.855c0,1.658.745,2.645,2.251,2.645,1.55,0,2.248-1.034,2.248-2.645v-2.644c0-1.627-.835-2.646-2.248-2.646-1.445,0-2.251,1.064-2.251,2.646Z" fill="#231f20"/>
      <path d="M810.076,904.631v-1.717a1.369,1.369,0,0,1,1.415-1.428h1.961v1.384h-1.278c-.272,0-.425.15-.425.454v1.307h2.1v1.4h-2.1v6.1h-1.673v-6.1H808.04v-1.4Z" fill="#231f20"/>
      <path d="M816.313,904.631v-2.447h1.658v2.447h2.2v1.4h-2.2v4.226c0,.3.152.455.425.455h1.354v1.415h-2.069a1.317,1.317,0,0,1-1.368-1.369v-4.727h-2.052v-1.4Z" fill="#231f20"/>
      <path d="M789.3,927.89a3.554,3.554,0,0,1,3.845,3.557v3.71a3.592,3.592,0,0,1-3.936,3.784c-2.236,0-3.71-1.308-3.71-3.344h1.779a1.713,1.713,0,0,0,1.931,1.778,1.953,1.953,0,0,0,2.189-2.1V933.97h-.182a2.653,2.653,0,0,1-2.4,1.125,3.351,3.351,0,0,1-3.4-3.512A3.654,3.654,0,0,1,789.3,927.89Zm2.1,3.693a2.121,2.121,0,1,0-2.113,2.129A2,2,0,0,0,791.4,931.583Z" fill="#231f20"/>
      <path d="M795.765,936.326a1.315,1.315,0,1,1-1.322,1.307A1.27,1.27,0,0,1,795.765,936.326Z" fill="#231f20"/>
      <path d="M803.339,928.1v10.641h-1.764v-8.771h-.182l-1.688,2.872h-1.869l2.811-4.742Z" fill="#231f20"/>
      <path d="M811.172,931.248v1.1h.213a2.27,2.27,0,0,1,4.074.076h.213a2.241,2.241,0,0,1,2.2-1.307,2.443,2.443,0,0,1,2.494,2.584v5.047H818.7v-4.911a1.208,1.208,0,0,0-1.368-1.246,1.434,1.434,0,0,0-1.536,1.58v4.577h-1.671v-4.911a1.222,1.222,0,0,0-1.383-1.246,1.441,1.441,0,0,0-1.536,1.58v4.577h-1.658v-7.5Z" fill="#231f20"/>
    </g>
    <line x1="781.883" y1="919.519" x2="824.329" y2="919.519" fill="none" stroke="#231f20" stroke-miterlimit="10" stroke-width="0.951"/>
    <g>
      <path d="M791.683,1025.442a3.089,3.089,0,0,1,3.329,3.062c0,1.81-1.1,2.677-3.049,3.169-1.4.36-2.17.652-2.17,1.691v.186h5.18v1.4h-6.712v-1.45c0-1.758,1.225-2.557,2.969-3.01,1.411-.373,2.237-.88,2.237-2.023a1.59,1.59,0,0,0-1.758-1.653,1.8,1.8,0,0,0-1.944,1.931v.293h-1.53v-.319A3.181,3.181,0,0,1,791.683,1025.442Z" fill="#231f20"/>
      <path d="M799.4,1025.442c2.131,0,3.516,1.37,3.516,3.767v2.158c0,2.463-1.385,3.769-3.516,3.769s-3.515-1.306-3.515-3.769v-2.158C795.886,1026.812,797.271,1025.442,799.4,1025.442Zm-1.97,6c0,1.452.651,2.317,1.97,2.317,1.359,0,1.971-.906,1.971-2.317v-2.317c0-1.424-.733-2.317-1.971-2.317-1.265,0-1.97.932-1.97,2.317Z" fill="#231f20"/>
      <path d="M809.2,1028.385v-1.506a1.2,1.2,0,0,1,1.238-1.251h1.719v1.212h-1.119c-.24,0-.374.132-.374.4v1.146H812.5v1.223h-1.839v5.34H809.2v-5.34H807.41v-1.223Z" fill="#231f20"/>
      <path d="M814.651,1028.385v-2.145H816.1v2.145h1.931v1.223H816.1v3.7c0,.268.132.4.373.4h1.185v1.238h-1.812a1.154,1.154,0,0,1-1.2-1.2v-4.143h-1.8v-1.223Z" fill="#231f20"/>
      <path d="M791.118,1057.935a3.12,3.12,0,0,1-3.37-3.115v-3.249a3.153,3.153,0,0,1,3.45-3.314c1.957,0,3.249,1.143,3.249,2.927h-1.559a1.494,1.494,0,0,0-1.69-1.557,1.7,1.7,0,0,0-1.9,1.838v1.145h.16a2.282,2.282,0,0,1,2.1-.986,2.935,2.935,0,0,1,2.971,3.077A3.186,3.186,0,0,1,791.118,1057.935Zm-1.825-3.234a1.851,1.851,0,1,0,1.851-1.864A1.75,1.75,0,0,0,789.293,1054.7Z" fill="#231f20"/>
      <path d="M796.679,1055.646a1.152,1.152,0,1,1-1.159,1.146A1.113,1.113,0,0,1,796.679,1055.646Z" fill="#231f20"/>
      <path d="M803.307,1048.442v9.321h-1.545v-7.683H801.6l-1.478,2.517h-1.638l2.464-4.155Z" fill="#231f20"/>
      <path d="M810.16,1051.2v.958h.186a1.988,1.988,0,0,1,3.568.067h.188a1.962,1.962,0,0,1,1.931-1.145,2.141,2.141,0,0,1,2.183,2.263v4.421h-1.465v-4.3a1.059,1.059,0,0,0-1.2-1.092,1.255,1.255,0,0,0-1.345,1.385v4.007h-1.464v-4.3a1.07,1.07,0,0,0-1.211-1.092,1.262,1.262,0,0,0-1.346,1.385v4.007h-1.452V1051.2Z" fill="#231f20"/>
    </g>
    <line x1="781.883" y1="1041.771" x2="824.329" y2="1041.771" fill="none" stroke="#231f20" stroke-miterlimit="10" stroke-width="0.951"/>
  </g>
</svg>
